<?xml version="1.0" standalone="no"?>
<!DOCTYPE svg PUBLIC "-//W3C//DTD SVG 20010904//EN"
 "http://www.w3.org/TR/2001/REC-SVG-20010904/DTD/svg10.dtd">
<svg version="1.0" xmlns="http://www.w3.org/2000/svg"
 width="432.000000pt" height="578.000000pt" viewBox="0 0 432.000000 578.000000"
 preserveAspectRatio="xMidYMid meet">

<g transform="translate(0.000000,578.000000) scale(0.100000,-0.100000)"
fill="#000000" stroke="none">
<path d="M0 5155 c0 -502 2 -623 13 -619 9 3 12 -8 12 -41 -1 -24 -4 -47 -7
-50 -3 -3 -2 -22 2 -41 5 -23 4 -34 -4 -34 -6 0 -5 -4 3 -9 8 -5 10 -14 6 -22
-6 -10 -5 -11 3 -4 8 8 27 510 24 627 -1 10 3 20 9 23 10 7 10 26 9 -545 l0
-425 92 -129 c51 -71 113 -157 138 -191 25 -34 83 -115 130 -180 l85 -118 3
102 c1 56 6 99 11 97 8 -5 6 -234 -2 -242 -1 -2 -77 97 -167 219 -90 122 -193
262 -229 310 -53 71 -67 85 -72 70 -6 -14 -9 -12 -14 14 -4 18 -11 30 -16 27
-5 -3 -13 5 -18 18 -8 18 -10 8 -10 -43 -1 -51 3 -68 14 -73 8 -3 15 -15 15
-26 0 -22 -15 -27 -23 -7 -3 6 -6 -250 -6 -570 -1 -383 2 -583 9 -583 6 0 10
-7 10 -15 0 -8 -4 -15 -10 -15 -6 0 -10 -55 -10 -144 0 -129 2 -145 18 -149
16 -4 16 -5 0 -6 -21 -1 -25 -37 -5 -44 10 -4 10 -6 0 -6 -7 -1 -13 -9 -12
-18 0 -11 3 -13 6 -5 8 21 23 13 23 -14 0 -20 -4 -25 -17 -20 -14 6 -14 3 3
-15 l19 -21 3 36 c2 26 8 36 20 36 15 1 15 2 -2 15 -13 10 -17 21 -12 39 3 14
2 28 -4 31 -5 3 -10 41 -10 84 0 46 -5 82 -12 89 -6 6 -9 14 -6 18 8 7 248
-153 248 -166 0 -5 -24 5 -53 22 -51 32 -65 41 -90 64 -16 14 -66 30 -52 17 6
-5 93 -63 195 -128 102 -65 193 -125 202 -133 10 -8 20 -30 24 -48 7 -40 8
-40 42 -15 15 10 36 21 47 24 16 3 13 6 -13 12 l-33 8 4 106 c3 58 1 114 -4
124 -7 12 -6 17 3 17 10 0 12 18 10 70 -2 38 -7 70 -10 70 -4 0 -8 25 -9 55
-2 52 -1 55 17 45 33 -18 36 -10 6 15 -27 21 -29 26 -18 49 6 14 18 26 27 26
8 0 15 7 15 16 0 14 -3 14 -15 4 -13 -10 -15 -9 -15 10 0 16 4 20 15 16 10 -4
15 1 15 15 0 11 -4 18 -9 14 -5 -3 -12 -1 -16 5 -3 5 3 10 13 10 17 0 21 -10
27 -69 4 -39 4 -74 1 -80 -3 -5 -9 -118 -12 -250 l-7 -241 70 4 c51 3 90 13
146 37 l75 34 6 80 c4 74 6 138 4 154 0 3 0 52 1 108 1 93 3 102 19 97 15 -5
15 -4 -2 10 -16 13 -17 18 -6 31 7 8 8 15 2 15 -5 0 -15 12 -21 28 -6 15 -20
38 -30 51 l-19 24 -12 -22 c-10 -19 -9 -26 6 -42 9 -10 15 -21 13 -23 -2 -1
-13 -9 -24 -15 -12 -8 -14 -11 -4 -8 13 4 15 1 12 -14 -3 -10 -8 -17 -12 -15
-3 2 -24 -9 -46 -26 -27 -20 -33 -28 -17 -23 12 3 22 2 22 -3 0 -5 -9 -9 -20
-8 -25 1 -25 7 -4 47 12 24 13 33 4 39 -8 5 -9 10 -2 14 6 3 12 0 14 -6 3 -8
9 -4 17 10 20 38 7 43 -75 27 -11 -3 -21 -10 -22 -17 -7 -52 -6 -94 3 -100 6
-5 3 -8 -7 -8 -25 0 -23 106 3 124 10 7 16 16 13 19 -12 12 26 19 40 8 24 -20
85 22 86 59 0 12 -13 15 -60 14 -39 -1 -57 2 -53 9 4 6 0 8 -9 4 -9 -3 -21 0
-27 6 -16 16 -14 47 3 47 8 0 17 8 20 18 3 9 4 3 2 -14 -1 -22 4 -35 17 -43
10 -7 22 -10 25 -7 3 3 0 6 -7 6 -8 0 -6 9 6 25 13 17 24 22 38 18 16 -4 18
-3 8 8 -17 17 -16 29 2 29 8 0 15 9 15 21 0 13 4 18 12 13 8 -5 9 -2 5 10 -4
10 -3 15 3 11 13 -8 13 -35 0 -35 -6 0 -9 -17 -8 -38 3 -44 29 -54 47 -19 11
21 11 21 5 -3 -9 -33 -21 -40 -56 -30 -15 5 -26 5 -23 0 3 -4 -1 -10 -7 -13
-7 -2 -10 -8 -6 -12 5 -5 19 -3 34 3 20 10 24 10 18 0 -5 -8 0 -7 11 2 17 14
18 13 13 -12 -3 -15 -1 -25 3 -22 4 2 13 -13 19 -35 11 -40 26 -59 38 -47 3 4
1 15 -6 26 -6 10 -7 20 -2 22 19 6 30 190 31 508 1 179 5 359 9 400 4 43 7
-80 5 -285 -1 -198 2 -371 6 -385 4 -16 8 14 10 80 l3 105 6 -105 c3 -58 7
-99 8 -92 1 6 7 12 12 12 12 0 13 -34 3 -81 l-7 -34 -7 30 -7 30 -1 -30 c-1
-23 -4 -26 -11 -15 -12 20 -21 9 -13 -18 3 -12 10 -19 15 -15 7 4 8 -14 3 -53
-14 -103 2 -422 18 -376 15 40 27 23 28 -40 1 -35 0 -67 -1 -73 -4 -21 -2 -56
4 -62 4 -4 27 3 53 16 l46 22 -7 80 c-8 95 1 119 45 119 38 0 69 -16 69 -35 0
-19 11 -19 35 -1 16 12 17 16 6 30 -12 14 -11 16 8 16 19 0 21 -6 21 -59 l0
-60 68 33 c37 18 77 37 90 41 13 4 21 12 18 18 -2 7 -27 62 -55 124 l-51 112
0 108 1 108 20 -50 c12 -27 27 -62 35 -77 8 -14 14 -30 14 -36 0 -5 12 -36 27
-68 l26 -58 17 55 c15 47 16 59 4 92 -17 49 1 38 27 -17 20 -43 22 -105 4
-118 -6 -5 -5 -8 3 -8 7 0 10 -5 7 -10 -4 -6 -1 -17 5 -25 10 -12 9 -15 -5
-15 -16 0 -15 -2 4 -19 14 -12 18 -22 11 -26 -7 -4 -7 -12 1 -26 6 -11 8 -27
5 -35 -3 -9 -1 -12 4 -9 6 3 10 -5 10 -19 0 -14 5 -28 12 -32 7 -5 8 -2 3 7
-4 8 2 4 14 -9 12 -12 20 -26 17 -31 -3 -5 1 -14 9 -21 8 -7 15 -18 15 -25 0
-6 10 -20 21 -31 12 -10 25 -29 30 -41 5 -15 14 -21 24 -17 9 4 15 3 13 -2 -5
-14 61 -91 101 -119 43 -29 51 -31 51 -10 0 8 -5 15 -11 15 -5 0 -8 4 -5 9 3
5 -1 14 -9 21 -8 7 -15 17 -15 23 0 5 -11 20 -25 33 -14 13 -25 26 -25 29 1
21 -1 25 -9 20 -5 -3 -15 11 -22 30 -7 19 -20 35 -28 35 -8 0 -11 3 -8 7 4 3
2 12 -3 18 -7 9 -6 14 4 18 13 5 44 -7 101 -41 11 -6 41 -20 67 -31 25 -12 48
-26 50 -32 2 -6 19 -13 38 -15 55 -6 70 -16 35 -23 -32 -7 -39 -27 -18 -49 7
-8 10 -18 7 -24 -4 -6 -3 -8 3 -5 14 9 63 -97 52 -114 -7 -10 -11 -11 -17 -2
-7 12 -54 33 -73 33 -5 0 -9 -4 -9 -10 0 -5 5 -9 12 -7 7 1 12 -5 13 -13 1
-17 -33 -45 -42 -36 -4 3 -15 -2 -26 -11 -10 -10 -22 -17 -26 -16 -10 3 -71
-29 -71 -37 0 -10 -81 -43 -88 -36 -3 3 -10 -1 -16 -9 -6 -7 -18 -15 -26 -17
-15 -3 -34 -15 -51 -33 -26 -27 -59 -67 -59 -71 0 -5 44 -49 50 -49 3 -1 24
-10 48 -22 23 -12 40 -17 36 -12 -6 11 -6 11 33 0 23 -7 37 -5 52 6 12 8 21
11 21 8 0 -3 9 -1 21 5 17 10 21 8 26 -9 3 -12 12 -21 20 -21 8 0 11 5 7 12
-4 6 -3 8 4 4 18 -11 39 21 47 71 3 26 9 58 12 71 l5 23 24 -22 c18 -17 21
-26 13 -40 -7 -15 -6 -17 6 -13 8 4 15 10 15 16 0 5 5 6 10 3 6 -3 10 -3 10 2
0 10 111 10 128 -1 6 -4 17 -4 22 -1 6 3 10 1 10 -4 0 -6 10 -11 23 -11 19 1
20 2 5 11 -9 5 -15 16 -12 24 4 8 11 12 16 9 6 -4 5 -10 -3 -15 -11 -7 -11 -9
2 -9 9 0 19 6 22 14 7 16 39 15 45 -2 2 -6 11 -8 20 -5 15 6 14 3 -2 -15 l-19
-22 34 -1 c32 -1 32 -2 9 -9 -23 -7 -23 -8 -3 -9 12 -1 24 -5 27 -9 3 -5 19
-7 36 -4 23 3 30 0 30 -12 0 -9 5 -16 11 -16 5 0 7 -6 3 -12 -6 -10 -4 -10 8
0 11 8 18 9 23 3 3 -6 20 -10 38 -10 18 0 53 -2 80 -4 26 -3 49 -1 52 3 3 4
20 7 37 5 56 -5 76 4 73 31 -1 13 2 24 6 24 5 0 9 11 9 25 0 14 5 25 11 25 5
0 8 4 5 9 -4 5 0 12 6 14 9 4 9 6 1 6 -13 1 -6 41 8 41 4 0 6 9 4 20 -4 19 -1
20 38 14 23 -4 51 -8 62 -9 11 -1 19 -8 17 -16 -2 -8 -1 -11 3 -7 4 4 18 3 31
-2 14 -6 26 -6 29 0 4 6 -5 10 -18 10 -14 0 -30 7 -37 15 -7 8 -16 13 -20 10
-14 -9 -40 6 -41 24 0 13 -2 12 -8 -3 -5 -14 -10 -16 -15 -8 -4 7 -4 12 0 12
3 0 1 7 -6 15 -10 12 -10 15 2 15 8 0 22 6 32 13 16 12 16 13 -2 32 -10 11
-17 26 -14 33 5 15 78 16 87 2 4 -6 10 -8 15 -5 5 3 11 1 14 -3 3 -5 -15 -9
-39 -10 -30 0 -43 3 -38 10 4 7 1 8 -7 3 -10 -6 -10 -11 3 -20 9 -7 14 -15 10
-19 -4 -4 2 -9 14 -12 12 -3 24 -12 27 -20 6 -16 42 -19 51 -5 3 5 0 13 -6 17
-8 4 -9 3 -5 -4 4 -7 1 -12 -9 -12 -8 0 -18 7 -21 15 -4 8 -12 15 -20 15 -8 0
-11 6 -7 15 5 14 8 14 27 2 17 -12 27 -12 56 -1 19 7 30 13 23 13 -7 1 -10 8
-6 18 5 12 3 14 -7 8 -9 -5 -11 -4 -6 3 10 16 18 15 42 -4 10 -8 13 -12 5 -8
-10 5 -13 3 -8 -9 6 -15 -15 -42 -25 -31 -3 2 -9 -3 -12 -13 -4 -9 -4 -14 0
-10 4 4 13 -1 21 -11 8 -9 12 -12 9 -6 -6 13 18 27 28 16 4 -3 17 -7 29 -9 16
-2 18 -1 8 6 -11 7 -10 10 5 14 15 4 15 5 -5 6 -17 1 -21 5 -17 17 3 9 6 18 6
20 0 3 5 2 11 -1 15 -10 61 4 54 15 -4 6 -25 9 -47 8 -26 -2 -42 2 -45 10 -4
9 1 10 21 2 16 -6 27 -6 31 0 4 6 17 10 30 10 24 0 43 23 39 48 -1 6 -2 18 -3
25 -1 7 -6 5 -12 -5 -5 -10 -15 -18 -22 -18 -8 0 -9 2 -1 8 14 9 15 43 2 59
-7 9 -5 15 6 19 9 3 13 10 10 15 -3 5 0 9 6 9 7 0 10 -6 7 -14 -7 -17 16 -39
28 -28 5 4 5 -1 2 -10 -5 -14 -1 -18 20 -18 26 0 26 0 7 16 -16 13 -16 15 -1
10 21 -7 23 12 2 20 -8 4 -15 11 -15 17 0 6 3 7 7 4 3 -4 13 -1 21 6 13 9 14
9 8 0 -5 -9 1 -13 18 -13 14 0 26 5 26 11 0 5 -5 7 -11 3 -8 -5 -8 -1 0 14 6
11 21 23 33 25 l23 4 -23 2 c-17 1 -22 6 -20 19 5 25 131 26 136 0 2 -11 -5
-18 -20 -21 -20 -4 -20 -4 5 -6 20 -1 27 -6 27 -21 0 -16 -7 -20 -32 -21 l-33
-1 29 -9 c17 -4 34 -15 38 -23 5 -8 34 -22 66 -31 62 -18 255 -103 365 -160
61 -32 69 -34 83 -20 24 24 37 18 14 -7 -43 -46 -1 -40 104 17 78 42 106 62
106 76 0 23 -15 25 -24 4 -3 -8 -14 -15 -25 -15 -30 0 -51 -11 -51 -27 0 -8
-5 -13 -11 -11 -23 8 -8 22 61 61 l71 39 -4 -28 c-2 -16 -7 -37 -12 -47 -4 -9
-4 -30 0 -45 4 -15 7 -43 7 -62 -1 -19 4 -41 11 -48 8 -11 7 -16 -7 -24 -14
-8 -16 -18 -11 -63 5 -34 3 -55 -4 -59 -6 -4 -11 0 -11 8 0 9 -4 16 -10 16 -5
0 -9 -3 -9 -7 3 -21 -3 -33 -17 -33 -18 0 -13 -23 19 -85 12 -22 21 -42 22
-45 4 -28 68 -166 91 -198 1 -2 12 -1 23 3 19 6 21 14 21 106 0 106 -4 113
-52 88 -11 -6 -22 -8 -26 -5 -8 8 39 41 58 41 13 0 15 61 18 477 2 422 0 477
-13 472 -20 -8 -20 20 0 36 17 14 21 85 5 75 -6 -4 -10 21 -10 69 0 41 5 78
10 81 10 6 14 75 4 75 -3 0 -58 -46 -122 -103 -211 -186 -494 -427 -503 -427
-5 0 -9 5 -9 10 0 6 5 10 10 10 6 0 10 7 10 15 0 8 -5 15 -11 15 -8 0 -7 5 2
16 10 13 10 17 -1 24 -12 7 -12 11 0 25 12 14 12 18 0 25 -12 7 -12 11 0 25
11 13 11 18 1 25 -9 5 -10 10 -2 14 6 4 11 14 11 22 0 8 -4 12 -10 9 -6 -3
-10 -2 -10 4 0 5 4 13 10 16 5 3 10 13 10 21 0 8 -4 12 -10 9 -14 -9 -12 9 2
23 10 10 10 15 -1 22 -13 7 -13 11 -1 25 12 14 12 18 -1 27 -11 7 -11 11 -1
15 6 2 12 11 12 19 0 9 -5 12 -10 9 -14 -9 -12 9 2 23 10 10 10 15 -1 22 -13
7 -13 11 -1 25 11 14 12 18 0 25 -11 7 -10 11 3 25 21 21 23 42 2 25 -12 -10
-15 -10 -15 4 0 9 5 16 10 16 6 0 10 7 10 16 0 8 -4 12 -10 9 -5 -3 -10 -1
-10 5 0 6 7 13 15 16 8 4 15 10 15 15 0 5 -7 9 -15 9 -17 0 -20 16 -5 25 6 3
10 11 10 16 0 6 -5 7 -10 4 -6 -3 -10 1 -10 9 0 8 4 18 10 21 5 3 10 11 10 16
0 6 -4 7 -10 4 -5 -3 -10 0 -10 9 0 8 6 17 12 20 10 5 11 7 1 12 -17 7 -17 31
0 37 9 4 8 8 -3 16 -12 8 -12 13 -2 23 14 14 16 32 2 23 -15 -9 -11 17 5 39
19 25 19 31 -1 51 -13 12 -14 19 -5 28 14 14 15 30 1 22 -6 -3 -10 1 -10 9 0
8 4 18 10 21 6 3 10 11 10 16 0 6 -4 7 -10 4 -5 -3 -10 0 -10 9 0 8 6 17 13
19 8 4 9 8 1 14 -11 9 -16 545 -4 538 3 -2 38 58 78 133 87 166 255 483 341
647 86 161 135 246 161 275 l22 25 -20 -30 c-10 -16 -56 -102 -102 -190 -45
-88 -97 -187 -115 -220 -30 -54 -35 -72 -44 -190 -21 -248 -24 -270 -32 -285
-6 -11 -8 -9 -9 10 0 14 -7 74 -16 133 l-17 108 -29 -53 c-17 -29 -31 -64 -31
-78 -1 -14 -11 -33 -23 -42 -11 -9 -46 -66 -77 -126 l-57 -110 0 -244 0 -243
52 80 c87 135 110 205 124 370 4 50 9 83 10 75 2 -8 8 -55 15 -103 l11 -88 51
78 c46 72 51 84 57 158 4 44 16 170 26 280 l19 200 5 -230 5 -230 90 140 c141
221 134 196 135 549 0 276 -1 298 -17 292 -16 -6 -16 -6 -1 11 14 16 17 48 17
226 l1 207 -2160 0 -2160 0 0 -625z m4282 273 c-7 -7 -12 -8 -12 -2 0 14 12
26 19 19 2 -3 -1 -11 -7 -17z m-40 -80 c-8 -8 -9 -4 -5 13 4 13 8 18 11 10 2
-7 -1 -18 -6 -23z m-35 -70 c-3 -8 -6 -5 -6 6 -1 11 2 17 5 13 3 -3 4 -12 1
-19z m-36 -65 c-12 -20 -14 -14 -5 12 4 9 9 14 11 11 3 -2 0 -13 -6 -23z m-34
-75 c-3 -8 -6 -5 -6 6 -1 11 2 17 5 13 3 -3 4 -12 1 -19z m-35 -60 c-7 -7 -12
-8 -12 -2 0 6 3 14 7 17 3 4 9 5 12 2 2 -3 -1 -11 -7 -17z m166 -135 c-3 -106
-6 -124 -31 -173 -15 -30 -37 -66 -47 -80 l-20 -25 0 129 0 130 40 68 c23 37
46 68 51 68 7 0 10 -41 7 -117z m-197 70 c-8 -15 -10 -15 -11 -2 0 17 10 32
18 25 2 -3 -1 -13 -7 -23z m-29 -55 c-7 -7 -12 -8 -12 -2 0 6 3 14 7 17 3 4 9
5 12 2 2 -3 -1 -11 -7 -17z m-3474 -130 c-30 -18 -75 0 -65 26 4 9 2 16 -3 16
-6 0 -10 9 -10 21 0 11 4 18 9 15 5 -3 12 4 15 17 5 19 10 16 36 -32 23 -42
27 -57 18 -63z m3561 39 c-15 -67 -18 -66 -16 6 1 54 4 65 13 52 8 -11 9 -28
3 -58z m-3549 47 c0 -8 -4 -12 -10 -9 -5 3 -10 10 -10 16 0 5 5 9 10 9 6 0 10
-7 10 -16z m3440 -8 c0 -3 -4 -8 -10 -11 -5 -3 -10 -1 -10 4 0 6 5 11 10 11 6
0 10 -2 10 -4z m-36 -61 c-4 -8 -8 -15 -10 -15 -2 0 -4 7 -4 15 0 8 4 15 10
15 5 0 7 -7 4 -15z m-33 -62 c-8 -15 -10 -15 -11 -2 0 17 10 32 18 25 2 -3 -1
-13 -7 -23z m-3801 -45 c0 -5 -4 -8 -10 -8 -5 0 -10 10 -10 23 0 18 2 19 10 7
5 -8 10 -18 10 -22z m3776 -4 c-4 -9 -9 -15 -11 -12 -3 3 -3 13 1 22 4 9 9 15
11 12 3 -3 3 -13 -1 -22z m208 -50 c12 -90 7 -239 -9 -260 -13 -17 -14 -2 -15
144 0 157 11 210 24 116z m-3948 -12 c-9 -8 -26 10 -26 26 1 15 2 15 15 -2 8
-11 13 -21 11 -24z m3711 6 c-3 -8 -6 -5 -6 6 -1 11 2 17 5 13 3 -3 4 -12 1
-19z m-3321 -70 c-3 -29 -6 -113 -6 -185 l0 -133 -25 0 -25 0 0 185 0 185 31
0 32 0 -7 -52z m3296 20 c-7 -7 -12 -8 -12 -2 0 6 3 14 7 17 3 4 9 5 12 2 2
-3 -1 -11 -7 -17z m-3654 -8 c7 -11 8 -20 2 -20 -5 0 -14 9 -20 20 -6 11 -7
20 -3 20 5 0 14 -9 21 -20z m2047 -24 c22 -3 40 -5 40 -6 0 -1 11 -4 25 -6 13
-2 27 -8 30 -12 7 -10 60 -33 89 -38 33 -7 113 -63 118 -85 3 -10 16 -25 29
-34 13 -8 24 -21 24 -27 0 -7 14 -27 32 -45 27 -28 29 -33 13 -33 -13 0 -6 -8
22 -27 35 -22 42 -33 45 -65 3 -37 -1 -43 -31 -38 -9 1 -12 -5 -8 -19 3 -14 1
-18 -9 -14 -8 3 -14 0 -14 -6 0 -6 3 -10 8 -10 20 3 32 -2 32 -16 0 -8 5 -15
10 -15 6 0 10 -4 10 -10 0 -5 -7 -10 -15 -10 -8 0 -14 3 -13 8 2 4 -1 8 -7 10
-5 2 -11 -4 -13 -13 -2 -8 0 -15 5 -14 25 4 34 -2 28 -21 -3 -11 -2 -20 4 -20
13 0 11 -41 -3 -59 -8 -11 -8 -13 2 -7 9 5 15 1 19 -13 3 -12 12 -21 19 -21 8
0 14 -7 14 -15 0 -25 1 -29 12 -42 15 -19 19 -95 5 -86 -7 4 -5 -4 4 -17 20
-33 14 -197 -12 -295 -6 -22 -10 -47 -10 -55 -1 -27 -31 -165 -39 -175 -14
-19 -16 -50 -3 -60 10 -8 11 -18 2 -45 -6 -19 -12 -42 -13 -50 -7 -40 -87
-146 -100 -133 -3 4 -6 -2 -7 -13 0 -12 -3 -14 -6 -6 -4 10 -14 6 -36 -15 -16
-15 -27 -22 -23 -15 4 7 1 12 -9 12 -8 0 -20 -10 -25 -22 -5 -14 -9 -17 -10
-8 0 13 -1 13 -10 0 -5 -8 -10 -10 -10 -5 0 6 -4 4 -9 -4 -5 -7 -7 -27 -4 -43
3 -19 1 -28 -6 -24 -5 3 -12 -3 -16 -14 -3 -11 -12 -20 -20 -20 -8 0 -16 -8
-20 -17 -3 -10 -19 -33 -36 -52 -28 -30 -39 -35 -90 -38 -31 -3 -66 0 -76 6
-12 6 -25 6 -33 1 -10 -6 -23 -4 -38 6 -16 10 -33 13 -50 9 -80 -22 -190 -26
-234 -8 -35 14 -98 75 -98 95 0 5 -11 19 -25 32 -16 15 -25 33 -24 52 l1 29
12 -27 c9 -20 15 -25 26 -18 11 7 11 10 2 10 -7 0 -18 11 -24 25 -10 23 -12
23 -24 7 -12 -16 -14 -16 -36 4 -13 12 -29 19 -37 16 -9 -3 -11 0 -6 8 5 8 4
11 -2 7 -21 -13 -70 18 -120 76 -65 73 -98 141 -115 231 -8 43 -19 70 -28 74
-31 11 -50 37 -57 74 -3 22 -9 36 -12 31 -10 -15 -68 -35 -122 -42 -72 -8 -76
-29 -7 -33 51 -3 53 -4 56 -34 3 -26 -3 -36 -26 -53 -17 -12 -35 -21 -41 -21
-6 0 -11 -5 -11 -11 0 -5 -4 -8 -9 -4 -5 3 -11 -3 -13 -12 -7 -29 -18 150 -21
321 -1 120 1 160 11 164 7 2 12 24 12 58 0 40 3 53 12 48 6 -4 29 -10 50 -14
37 -7 39 -6 54 28 8 19 17 32 21 28 4 -3 1 -12 -5 -18 -7 -7 -12 -32 -12 -57
0 -50 13 -81 25 -62 4 7 16 9 27 5 15 -4 18 -3 13 6 -5 9 -4 11 4 6 6 -4 8
-13 3 -21 -8 -16 1 -120 16 -175 l9 -35 6 45 c3 25 8 133 11 240 4 176 7 203
31 280 15 47 31 90 35 95 5 6 9 29 8 52 0 23 7 55 15 72 9 17 11 29 6 26 -16
-10 -10 1 17 31 14 16 36 50 49 75 45 86 123 143 245 177 40 12 189 11 208 -1
7 -5 12 -3 12 4 0 7 10 10 28 6 15 -2 61 1 102 8 41 6 86 10 100 8 14 -2 43
-5 65 -7z m-1992 -79 c4 -11 3 -16 -3 -12 -6 3 -10 12 -10 19 0 8 -7 19 -15
26 -8 7 -15 20 -15 29 0 16 30 -26 43 -62z m3551 18 c-4 -8 -8 -15 -10 -15 -2
0 -4 7 -4 15 0 8 4 15 10 15 5 0 7 -7 4 -15z m130 -62 c15 -87 19 -289 6 -313
l-13 -24 -8 22 c-7 19 -13 62 -23 185 -2 16 3 56 11 88 7 33 11 64 8 69 -4 6
-2 10 3 10 5 0 12 -17 16 -37z m-3835 -14 c-7 -4 -17 -5 -22 -2 -5 3 -3 9 4
14 7 4 17 5 22 2 5 -3 3 -9 -4 -14z m248 -116 c-6 -5 -77 116 -77 130 0 7 18
-19 41 -57 22 -38 38 -70 36 -73z m3393 63 c0 -3 -4 -8 -10 -11 -5 -3 -10 -1
-10 4 0 6 5 11 10 11 6 0 10 -2 10 -4z m-2694 -56 c12 0 26 -5 29 -11 4 -6 14
-8 22 -5 8 3 11 1 8 -4 -3 -6 -13 -10 -21 -10 -8 0 -14 -6 -15 -12 0 -7 -4 -4
-9 7 -8 18 -9 18 -9 2 -1 -10 -8 -20 -16 -23 -8 -4 -15 -12 -15 -20 0 -8 7
-14 15 -14 8 0 15 -7 15 -15 0 -9 6 -18 14 -21 8 -3 12 -12 9 -20 -3 -9 2 -14
15 -14 12 0 24 -5 28 -12 5 -7 2 -9 -9 -5 -28 11 -40 -19 -34 -86 l6 -62 -15
47 c-13 41 -19 47 -45 50 -27 3 -34 10 -55 62 -25 61 -30 111 -15 135 5 7 14
10 20 7 6 -4 11 -3 11 2 0 5 -9 12 -20 15 -11 3 -20 12 -20 21 0 13 4 14 41 1
23 -8 52 -15 65 -15z m-940 -25 c1 -36 -12 -41 -29 -13 -12 18 -3 48 15 48 8
0 13 -14 14 -35z m3901 -7 c-3 -7 -5 -2 -5 12 0 14 2 19 5 13 2 -7 2 -19 0
-25z m-3637 -9 c0 -6 -4 -7 -10 -4 -5 3 -10 11 -10 16 0 6 5 7 10 4 6 -3 10
-11 10 -16z m3448 -111 c-3 -93 -6 -108 -33 -153 l-30 -50 -3 108 c-2 100 -1
110 24 152 14 25 30 45 36 45 6 0 9 -39 6 -102z m-3401 15 c-6 -5 -37 55 -37
71 0 6 9 -7 21 -28 11 -21 18 -40 16 -43z m512 -108 c1 -68 -2 -95 -9 -85 -5
8 -9 62 -9 120 0 68 3 98 9 85 5 -11 9 -65 9 -120z m2928 28 c-2 -16 -4 -5 -4
22 0 28 2 40 4 28 2 -13 2 -35 0 -50z m-3307 -63 c7 -54 25 -90 45 -90 9 0 15
-10 15 -25 0 -22 -4 -25 -35 -25 -32 0 -35 -2 -35 -29 0 -16 -5 -42 -10 -57
-8 -19 -7 -30 1 -41 9 -10 9 -19 1 -36 -6 -12 -13 -31 -15 -42 -3 -11 -5 42
-5 118 0 75 4 135 8 132 5 -3 11 -1 15 5 8 13 -31 100 -44 100 -6 0 -11 5 -11
11 0 5 5 7 10 4 6 -3 13 1 16 10 13 32 39 11 44 -35z m445 -69 c5 -17 4 -22
-6 -19 -10 3 -40 95 -38 118 1 7 36 -71 44 -99z m-678 -57 c-3 -3 -12 -4 -19
-1 -8 3 -5 6 6 6 11 1 17 -2 13 -5z m658 -96 c14 -29 22 -41 19 -25 -5 24 -3
27 19 27 41 0 57 -33 50 -104 -8 -84 -22 -106 -23 -36 0 42 -4 58 -18 67 -17
10 -18 2 -21 -159 -2 -147 0 -170 13 -165 21 8 28 -20 20 -90 -7 -67 -26 -84
-44 -40 -9 20 -10 20 -9 2 1 -11 1 -31 0 -45 -2 -23 -3 -23 -17 9 -8 19 -19
40 -24 46 -6 7 -11 126 -13 289 -2 303 2 323 48 224z m-262 -35 c-7 -2 -19 -2
-25 0 -7 3 -2 5 12 5 14 0 19 -2 13 -5z m-50 -15 c-6 -7 -13 -25 -17 -40 -5
-21 -1 -30 16 -42 15 -11 26 -12 32 -6 18 18 34 11 45 -20 5 -16 15 -30 22
-30 7 0 9 -3 6 -6 -4 -4 -13 -1 -21 5 -10 8 -16 9 -21 1 -4 -6 -23 -10 -43 -9
-35 2 -37 4 -37 37 0 45 -20 53 -29 11 -9 -49 -19 -27 -12 26 4 27 16 54 29
65 23 22 45 28 30 8z m145 -45 c0 -30 -2 -34 -8 -18 -5 12 -9 14 -9 6 -1 -8
-3 -12 -6 -9 -6 5 11 58 18 58 2 0 4 -17 5 -37z m2170 -87 c-2 -55 -6 -71 -18
-71 -8 0 -21 -4 -27 -8 -9 -6 -13 -2 -13 10 0 15 -2 16 -10 3 -13 -21 -13
-103 0 -95 6 4 22 0 35 -9 19 -13 24 -25 27 -76 3 -60 2 -62 -39 -108 l-43
-47 3 112 c2 113 -8 140 -18 48 -9 -82 -15 -100 -35 -113 -23 -14 -27 -1 -10
42 5 14 11 42 14 63 2 21 11 69 20 106 9 38 16 87 16 110 1 34 3 39 11 24 10
-18 11 -18 25 0 7 10 14 32 14 50 0 31 14 44 38 35 9 -3 12 -24 10 -76z
m-2234 -75 c3 -4 -6 -6 -19 -3 -20 3 -24 1 -19 -12 5 -12 0 -16 -18 -16 -27 0
-48 -17 -48 -38 0 -10 7 -12 27 -7 26 6 27 6 10 -13 -9 -10 -17 -24 -17 -30 0
-19 20 -14 41 11 18 21 20 21 33 4 22 -28 5 -63 -29 -60 -37 3 -57 22 -52 50
4 24 -18 34 -26 11 -2 -7 -2 1 1 17 5 37 29 65 54 65 10 0 17 3 17 8 -3 17 2
22 20 22 11 0 22 -4 25 -9z m41 -63 c-4 -24 -8 -45 -11 -47 -5 -5 -2 72 3 82
10 18 13 4 8 -35z m2895 13 c0 -6 -4 -13 -10 -16 -5 -3 -10 1 -10 9 0 9 5 16
10 16 6 0 10 -4 10 -9z m-3477 -188 c175 -199 287 -331 287 -338 0 -20 -46 26
-239 240 -135 149 -221 252 -221 265 0 11 2 20 4 20 2 0 78 -84 169 -187z
m554 161 c-3 -3 -12 -4 -19 -1 -8 3 -5 6 6 6 11 1 17 -2 13 -5z m280 -36 c-3
-8 -6 -5 -6 6 -1 11 2 17 5 13 3 -3 4 -12 1 -19z m-229 -13 c-2 -5 -11 -11
-22 -12 -16 -3 -17 -1 -6 12 14 16 34 16 28 0z m-181 -42 c-3 -10 -5 -4 -5 12
0 17 2 24 5 18 2 -7 2 -21 0 -30z m4 -53 c2 31 2 32 6 8 5 -31 11 -33 48 -16
23 10 28 10 37 -5 5 -10 14 -15 19 -11 5 3 8 2 7 -3 -2 -4 2 -10 7 -12 21 -10
32 -26 27 -40 -3 -8 -1 -12 4 -8 5 3 10 -3 10 -13 0 -18 -2 -18 -17 -4 -10 9
-16 21 -13 27 2 7 -5 18 -16 25 -12 7 -20 8 -20 2 0 -5 -4 -10 -9 -10 -5 0 -7
8 -4 18 5 21 -23 27 -44 10 -7 -5 -18 -6 -25 -2 -10 6 -10 4 0 -9 12 -14 12
-19 -2 -32 -21 -22 -20 -42 3 -54 14 -8 22 -6 35 8 10 11 26 21 38 24 17 5 19
2 14 -19 -4 -16 -2 -24 6 -24 7 0 -5 -9 -27 -19 -27 -12 -44 -15 -52 -8 -7 5
-11 13 -8 17 3 4 -4 10 -15 13 -13 3 -20 14 -20 30 0 14 -4 36 -9 49 -5 13
-11 48 -14 78 l-6 55 18 -55 c19 -54 19 -55 22 -20z m2604 -202 c-4 -149 -3
-138 -16 -138 -8 0 -8 5 1 15 8 9 8 15 2 15 -11 0 -10 38 1 57 4 6 1 14 -5 17
-10 5 -10 7 1 12 11 5 11 8 0 14 -10 7 -10 11 0 24 11 12 11 16 1 16 -10 0
-10 3 0 15 10 12 9 15 -6 15 -18 1 -18 1 0 15 20 15 20 15 0 15 -19 1 -19 1 0
15 11 8 21 15 23 15 1 0 1 -55 -2 -122z m-2175 80 c0 -18 -2 -20 -9 -8 -6 8
-7 18 -5 22 9 14 14 9 14 -14z m-1010 -100 c0 -4 -4 -8 -9 -8 -6 0 -12 4 -15
8 -3 5 1 9 9 9 8 0 15 -4 15 -9z m510 -63 c-8 -40 -8 -40 -9 15 0 35 3 50 8
40 5 -8 5 -33 1 -55z m707 -2 c-2 -16 -4 -5 -4 22 0 28 2 40 4 28 2 -13 2 -35
0 -50z m-744 42 c4 -8 2 -17 -3 -20 -6 -4 -10 3 -10 14 0 25 6 27 13 6z m191
7 c3 -5 -8 -6 -24 -4 -25 4 -29 1 -25 -17 2 -11 0 -23 -6 -26 -5 -4 -9 8 -9
24 0 28 3 31 29 31 17 0 32 -4 35 -8z m573 -139 c-2 -27 -3 -5 -3 47 0 52 1
74 3 48 2 -27 2 -69 0 -95z m-1183 98 c4 -5 -3 -7 -14 -4 -23 6 -26 13 -6 13
8 0 17 -4 20 -9z m-66 -26 c-3 -3 -9 2 -12 12 -6 14 -5 15 5 6 7 -7 10 -15 7
-18z m184 -80 c-3 -5 -7 -4 -10 3 -2 7 -8 10 -13 6 -5 -3 -9 2 -9 10 0 9 -4
16 -10 16 -5 0 -10 5 -10 11 0 6 13 0 29 -13 15 -13 26 -27 23 -33z m335 -22
c-2 -16 -4 -3 -4 27 0 30 2 43 4 28 2 -16 2 -40 0 -55z m-433 51 c5 -14 4 -15
-9 -4 -17 14 -19 20 -6 20 5 0 12 -7 15 -16z m856 -5 c0 -5 -4 -9 -10 -9 -5 0
-10 7 -10 16 0 8 5 12 10 9 6 -3 10 -10 10 -16z m231 -18 c-6 -11 -11 -38 -11
-60 0 -23 -4 -41 -10 -41 -5 0 -10 10 -10 22 0 12 -7 29 -16 39 -19 21 -11 54
11 45 9 -3 19 3 27 17 6 13 13 17 15 10 3 -7 0 -21 -6 -32z m2023 -8 c-3 -53
-3 -53 -15 -53 -8 0 -8 5 1 15 8 9 8 15 2 15 -6 0 -9 12 -7 28 5 34 4 32 13
32 4 0 7 -17 6 -37z m142 -30 c-4 -4 -13 0 -21 10 -11 15 -13 16 -19 2 -6 -17
-26 -21 -26 -4 0 5 4 8 9 5 5 -3 11 4 15 17 l5 22 23 -22 c12 -12 18 -26 14
-30z m-2340 -28 c28 -62 32 -94 10 -76 -12 11 -15 6 -18 -31 -2 -31 -8 -44
-20 -46 -16 -3 -18 7 -18 108 0 124 6 130 46 45z m2266 30 c3 -14 1 -28 -3
-31 -5 -3 -9 9 -9 25 0 38 6 40 12 6z m943 11 c7 14 10 6 15 -36 7 -57 -5 -94
-21 -68 -6 9 -9 7 -9 -8 0 -12 -7 -24 -15 -28 -12 -4 -15 6 -16 57 l-1 62 -18
-74 c-22 -87 -29 -106 -36 -99 -2 3 1 38 8 79 10 61 17 78 42 101 27 25 31 26
37 11 5 -15 6 -15 14 3z m-2988 -18 c-3 -8 -6 -5 -6 6 -1 11 2 17 5 13 3 -3 4
-12 1 -19z m-768 -60 c-2 -104 -17 -126 -18 -25 -1 52 3 87 9 87 6 0 10 -27 9
-62z m671 26 c0 -8 -4 -14 -10 -14 -5 0 -10 9 -10 21 0 11 5 17 10 14 6 -3 10
-13 10 -21z m2073 -41 c-6 -15 -23 -17 -23 -3 0 6 5 10 11 10 8 0 9 4 0 13 -6
8 -8 17 -4 21 9 9 22 -25 16 -41z m-2985 12 c-3 -3 -9 2 -12 12 -6 14 -5 15 5
6 7 -7 10 -15 7 -18z m38 0 c1 -8 -2 -13 -7 -9 -5 3 -9 1 -9 -5 0 -5 6 -12 13
-14 6 -3 2 -6 -10 -6 -20 -1 -21 1 -11 30 10 30 20 32 24 4z m3860 8 c-3 -10
-10 -48 -16 -84 -9 -54 -16 -69 -36 -79 -31 -17 -41 -7 -16 16 11 11 25 45 32
79 6 33 13 66 15 73 7 19 27 14 21 -5z m-741 -28 c0 -11 6 -24 13 -28 20 -13
14 -36 -12 -43 -14 -3 -30 -3 -35 1 -6 3 -11 1 -11 -4 0 -6 14 -11 30 -11 52
0 31 -40 -22 -42 -43 -1 -58 7 -58 33 0 12 -7 19 -20 19 -24 0 -37 27 -21 43
6 6 11 19 11 28 0 13 10 19 38 22 68 7 87 4 87 -18z m-3173 1 c7 4 8 2 4 -5
-9 -13 -26 -5 -25 12 0 9 2 8 6 -1 2 -6 10 -9 15 -6z m968 -10 c0 -8 3 -21 6
-29 8 -22 -28 -31 -43 -11 -11 15 -10 21 5 35 21 22 32 23 32 5z m1927 -23
c-3 -10 -5 -4 -5 12 0 17 2 24 5 18 2 -7 2 -21 0 -30z m-296 -116 c-13 -33
-37 -27 -46 13 -4 18 2 45 17 80 l23 53 8 -59 c5 -37 4 -70 -2 -87z m399 123
c0 -5 -5 -10 -11 -10 -5 0 -7 5 -4 10 3 6 8 10 11 10 2 0 4 -4 4 -10z m-164
-37 c-5 -39 -5 -40 -15 -24 -10 15 -3 51 10 51 4 0 6 -12 5 -27z m169 7 c-4
-6 -2 -17 4 -24 8 -10 7 -21 -3 -40 -8 -15 -17 -23 -20 -17 -4 5 -1 13 5 17 8
4 7 9 -2 15 -12 8 -12 10 0 18 10 6 10 10 1 16 -9 6 -9 10 1 16 18 11 21 11
14 -1z m-2456 -44 c-22 -20 -22 -20 -6 0 9 11 17 27 18 35 0 11 2 11 6 0 3 -7
-5 -23 -18 -35z m3311 29 c0 -8 -7 -15 -15 -15 -16 0 -20 12 -8 23 11 12 23 8
23 -8z m-3823 -17 c-3 -8 -6 -5 -6 6 -1 11 2 17 5 13 3 -3 4 -12 1 -19z m83
18 c0 -2 -7 -7 -16 -10 -8 -3 -12 -2 -9 4 6 10 25 14 25 6z m3700 -48 c0 -44
-5 -57 -26 -78 -14 -13 -33 -25 -41 -26 -8 -2 -37 -21 -65 -44 -27 -23 -51
-41 -52 -39 -2 2 -6 28 -8 57 -5 51 9 81 30 68 5 -3 24 13 42 34 19 22 39 40
46 40 6 0 22 9 35 20 13 10 27 19 32 20 4 0 7 -24 7 -52z m210 22 c0 -11 -6
-20 -12 -20 -7 0 -29 -14 -48 -31 -21 -19 -36 -26 -38 -19 -5 14 49 61 60 53
5 -2 8 2 8 11 0 12 8 19 28 25 1 1 2 -8 2 -19z m-2670 -10 c6 -11 8 -20 6 -20
-3 0 -10 9 -16 20 -6 11 -8 20 -6 20 3 0 10 -9 16 -20z m-1514 -5 c16 -8 37
-12 47 -9 13 4 17 0 17 -20 0 -35 -31 -50 -86 -41 -42 6 -44 8 -44 39 0 50 16
57 66 31z m399 -202 c-4 -95 -10 -173 -14 -173 -9 0 -2 358 6 380 13 30 15
-36 8 -207z m2655 109 c-5 -15 -9 -21 -9 -14 -1 7 -16 12 -41 12 -22 0 -40 5
-40 11 0 6 8 8 20 4 32 -10 60 12 61 48 l1 32 8 -33 c4 -19 4 -46 0 -60z
m-2973 46 c-3 -8 -6 -5 -6 6 -1 11 2 17 5 13 3 -3 4 -12 1 -19z m525 -20 c-4
-28 -6 -30 -13 -13 -7 18 -8 18 -9 -5 -3 -36 0 -55 11 -58 5 -2 9 -19 9 -38 0
-38 -21 -54 -45 -34 -12 10 -15 9 -15 -4 0 -12 10 -16 38 -16 34 0 37 -2 38
-31 1 -20 -2 -26 -7 -17 -5 7 -9 11 -10 8 0 -3 -2 -15 -5 -28 -2 -14 0 -21 6
-17 5 3 10 2 10 -4 0 -5 3 -18 6 -28 5 -15 4 -16 -5 -3 -9 12 -10 9 -8 -15 2
-17 7 -36 11 -43 5 -8 2 -10 -9 -6 -9 4 -14 12 -11 19 7 19 -16 88 -25 74 -14
-24 -31 3 -26 42 9 71 -11 40 -29 -43 -10 -45 -20 -76 -22 -70 -5 16 27 161
42 187 6 11 11 29 11 40 0 12 6 19 15 17 10 -3 9 3 -5 19 -11 12 -15 19 -9 16
7 -4 15 0 18 9 3 8 2 12 -3 9 -5 -3 -13 0 -17 6 -4 7 -3 9 3 6 5 -3 20 7 32
23 12 17 23 30 25 30 1 0 0 -15 -2 -32z m2565 10 c-3 -8 -6 -5 -6 6 -1 11 2
17 5 13 3 -3 4 -12 1 -19z m-17 2 c0 -5 -4 -10 -10 -10 -5 0 -10 5 -10 10 0 6
5 10 10 10 6 0 10 -4 10 -10z m-2434 -12 c4 -6 3 -8 -4 -4 -6 4 -12 -3 -14
-16 -2 -15 -9 -22 -21 -22 -9 1 -17 -2 -17 -7 0 -5 6 -9 14 -9 8 0 17 -6 19
-12 3 -8 6 -5 6 5 1 10 5 16 10 13 5 -3 5 -21 1 -41 -4 -20 -4 -38 1 -41 16
-9 11 -64 -6 -64 -17 0 -19 -11 -6 -25 14 -16 22 -65 11 -65 -6 0 -8 5 -4 12
4 7 3 8 -4 4 -12 -7 -5 -37 12 -48 7 -5 4 -8 -6 -8 -26 0 -58 36 -58 65 0 14
5 25 11 25 5 0 7 5 4 10 -3 6 -1 10 4 10 6 0 11 6 11 14 0 8 8 17 18 19 13 4
11 5 -5 6 -13 0 -23 -3 -23 -9 0 -5 -4 -10 -10 -10 -6 0 -9 33 -7 83 2 61 6
82 17 82 7 0 15 6 18 14 3 10 0 12 -12 8 -9 -4 -16 -2 -16 3 0 7 16 14 42 19
4 0 10 -4 14 -11z m2584 -4 c14 -1 28 -3 33 -3 15 -2 6 -43 -17 -80 -27 -42
-80 -71 -98 -53 -12 12 6 42 25 42 13 0 47 30 47 42 0 15 -23 8 -46 -13 -37
-34 -58 -4 -31 44 16 30 29 38 47 30 8 -3 26 -7 40 -9z m770 1 c0 -8 -5 -15
-11 -15 -6 0 -18 -7 -27 -16 -12 -13 -17 -14 -20 -4 -3 7 6 21 19 31 29 23 39
24 39 4z m-3860 -208 c80 -60 151 -112 159 -116 7 -4 11 -16 10 -25 -3 -14
-26 -2 -114 60 -60 43 -161 113 -222 157 -92 64 -113 83 -113 103 0 24 2 24
67 -23 38 -26 133 -97 213 -156z m-50 182 c0 -5 -4 -9 -9 -9 -5 0 -12 -8 -14
-17 -3 -10 -5 -4 -6 14 -1 25 2 31 14 27 8 -4 15 -10 15 -15z m850 12 c-26
-15 -66 -24 -55 -13 6 5 19 12 30 15 32 8 41 7 25 -2z m2140 -1 c0 -5 -5 -10
-11 -10 -5 0 -7 5 -4 10 3 6 8 10 11 10 2 0 4 -4 4 -10z m16 -32 c4 -7 3 -8
-4 -4 -7 4 -12 2 -12 -4 0 -6 -5 -8 -11 -4 -8 4 -7 9 2 15 18 11 17 11 25 -3z
m834 -3 c0 -8 -6 -15 -14 -15 -8 0 -16 -4 -18 -8 -5 -14 -108 -85 -108 -75 0
4 -5 0 -11 -10 -6 -9 -14 -15 -20 -12 -5 4 -9 0 -9 -7 0 -13 -180 -141 -188
-133 -8 8 92 88 208 165 36 24 68 47 71 52 8 12 72 57 82 58 4 0 7 -7 7 -15z
m-3781 -11 c13 -12 -8 -10 -29 2 l-25 15 25 -7 c14 -3 27 -8 29 -10z m2931
-24 c0 -5 -5 -10 -11 -10 -5 0 -7 5 -4 10 3 6 8 10 11 10 2 0 4 -4 4 -10z m10
-25 c-7 -8 -17 -15 -23 -15 -6 0 -2 8 9 19 22 21 33 19 14 -4z m-2930 -9 c0
-14 -4 -28 -10 -31 -6 -4 -10 7 -10 24 0 17 5 31 10 31 6 0 10 -11 10 -24z
m-30 0 c0 -3 -4 -8 -10 -11 -5 -3 -10 -1 -10 4 0 6 5 11 10 11 6 0 10 -2 10
-4z m1485 -6 c3 -5 2 -10 -4 -10 -5 0 -13 5 -16 10 -3 6 -2 10 4 10 5 0 13 -4
16 -10z m1075 0 c0 -5 -7 -10 -15 -10 -8 0 -15 5 -15 10 0 6 7 10 15 10 8 0
15 -4 15 -10z m840 -17 c0 -19 -3 -24 -10 -17 -6 6 -8 18 -4 27 9 24 14 21 14
-10z m-1299 -2 c-9 -6 -5 -8 13 -8 15 0 30 -3 33 -7 7 -7 -45 -66 -58 -66 -4
0 -21 -14 -38 -31 -17 -17 -35 -27 -41 -24 -6 4 -10 3 -9 -2 4 -20 -2 -24 -18
-12 -9 8 -14 10 -11 4 8 -14 -62 -15 -150 -3 -81 12 -108 30 -40 28 23 -1 58
3 76 8 17 6 32 9 32 6 0 -3 10 0 21 7 17 9 19 13 8 20 -8 5 -9 9 -3 9 5 0 14
-4 20 -10 13 -13 91 26 99 51 4 11 10 17 15 14 4 -3 19 4 31 14 13 11 26 17
29 15 2 -3 -2 -9 -9 -13z m46 3 c-3 -3 -12 -4 -19 -1 -8 3 -5 6 6 6 11 1 17
-2 13 -5z m409 -41 c-11 -11 -19 6 -11 24 8 17 8 17 12 0 3 -10 2 -21 -1 -24z
m404 33 c0 -11 -19 -15 -25 -6 -3 5 1 10 9 10 9 0 16 -2 16 -4z m-5 -36 c-3
-5 -11 -10 -16 -10 -6 0 -7 5 -4 10 3 6 11 10 16 10 6 0 7 -4 4 -10z m445 -5
c0 -8 -4 -15 -10 -15 -5 0 -7 7 -4 15 4 8 8 15 10 15 2 0 4 -7 4 -15z m-683
-1 c-3 -3 -12 -4 -19 -1 -8 3 -5 6 6 6 11 1 17 -2 13 -5z m80 -26 c-3 -8 -6
-5 -6 6 -1 11 2 17 5 13 3 -3 4 -12 1 -19z m473 12 c0 -5 -9 -10 -21 -10 -11
0 -17 5 -14 10 3 6 13 10 21 10 8 0 14 -4 14 -10z m-310 -10 c0 -5 -8 -10 -17
-10 -15 0 -16 2 -3 10 19 12 20 12 20 0z m-1060 -10 c0 -5 -7 -10 -16 -10 -8
0 -12 5 -9 10 3 6 10 10 16 10 5 0 9 -4 9 -10z m-57 -7 c-7 -2 -19 -2 -25 0
-7 3 -2 5 12 5 14 0 19 -2 13 -5z m1557 -9 c0 -8 -5 -12 -10 -9 -6 4 -8 11 -5
16 9 14 15 11 15 -7z m-865 -14 c-3 -5 -1 -10 5 -10 6 0 8 -5 4 -11 -4 -8 -9
-7 -15 2 -7 12 -3 29 7 29 3 0 2 -4 -1 -10z m-2176 -82 c4 -5 5 8 3 27 -3 21
0 35 7 35 6 0 11 -17 11 -40 0 -29 -4 -40 -15 -40 -8 0 -15 5 -15 11 0 5 -4 8
-8 5 -4 -2 -6 12 -3 32 5 36 6 36 9 7 2 -16 7 -33 11 -37z m-253 -15 c40 -27
74 -51 74 -56 0 -9 -52 17 -72 35 -7 7 -30 22 -50 33 -21 11 -38 23 -38 27 0
14 10 9 86 -39z m3301 23 c-8 -8 -17 -12 -21 -9 -3 3 2 12 12 19 22 16 29 9 9
-10z m-2923 -12 c4 -12 2 -12 -14 -4 -11 6 -20 15 -20 20 0 14 28 1 34 -16z
m1723 -35 c1 -12 -1 -19 -4 -15 -10 10 -33 -15 -26 -28 3 -6 2 -8 -2 -3 -5 4
-16 0 -26 -9 -16 -15 -17 -14 -12 5 3 11 9 18 14 15 5 -3 9 -1 9 4 0 7 37 52
43 52 2 0 3 -10 4 -21z m409 -34 c0 -28 -6 -31 -24 -13 -10 10 -4 20 24 38 0
0 0 -11 0 -25z m141 12 c0 -8 -6 -14 -14 -14 -9 0 -10 4 -2 14 6 7 12 13 14
13 1 0 2 -6 2 -13z m1183 3 c0 -5 -4 -10 -10 -10 -5 0 -10 5 -10 10 0 6 5 10
10 10 6 0 10 -4 10 -10z m-1449 -33 c-8 -8 -11 -7 -11 4 0 20 13 34 18 19 3
-7 -1 -17 -7 -23z m307 21 c19 -19 14 -29 -8 -16 -20 13 -27 28 -12 28 4 0 13
-5 20 -12z m-348 -13 c-9 -11 -10 -15 -1 -15 7 0 19 -6 27 -14 12 -13 12 -16
-2 -24 -12 -7 -13 -11 -5 -17 9 -5 9 -10 1 -20 -17 -20 -50 -144 -43 -162 4
-11 2 -14 -5 -9 -8 5 -14 -3 -18 -22 -6 -29 -43 -53 -45 -29 0 8 -2 8 -6 0 -2
-7 -12 -13 -21 -13 -8 0 -12 3 -8 7 10 10 -123 75 -137 66 -6 -3 -7 -1 -3 6 4
6 0 14 -8 17 -9 3 -13 11 -9 18 3 6 3 8 -2 4 -9 -9 -45 9 -45 22 0 5 9 7 20 5
18 -4 25 6 21 29 -1 5 5 4 13 -3 12 -10 14 -9 9 8 -7 28 6 27 16 -1 5 -15 4
-26 -3 -31 -7 -6 -6 -7 4 -4 10 2 14 13 12 30 -2 19 1 27 12 27 23 0 19 15 -4
17 -11 1 -18 -2 -15 -7 3 -6 -1 -7 -10 -4 -14 6 -14 8 2 19 10 7 31 11 46 10
15 -2 25 1 21 6 -3 5 -10 6 -16 3 -7 -4 -8 -2 -4 4 4 7 14 12 23 12 10 0 14 6
10 20 -5 18 -3 19 24 4 16 -8 29 -19 29 -24 0 -5 7 -7 17 -3 14 5 13 8 -5 14
-12 5 -22 13 -22 19 0 15 20 12 21 -2 0 -10 2 -10 6 0 4 10 8 8 18 -5 12 -17
14 -16 20 9 7 26 29 43 45 33 5 -3 11 -1 15 5 3 5 9 10 12 10 3 0 0 -7 -7 -15z
m417 9 c-3 -3 -12 -4 -19 -1 -8 3 -5 6 6 6 11 1 17 -2 13 -5z m-748 -21 c-7
-10 -22 -28 -34 -41 -11 -13 -15 -23 -10 -22 22 5 36 -1 29 -12 -5 -7 -3 -8 6
-3 10 6 9 11 -4 21 -9 6 -14 14 -9 17 14 8 53 1 66 -12 9 -10 9 -11 -4 -6 -20
8 -35 -24 -18 -39 9 -8 10 -7 4 4 -8 13 -7 13 8 1 23 -18 21 -30 -3 -24 -12 3
-20 0 -20 -6 0 -7 5 -9 11 -5 7 4 10 -1 7 -12 -2 -11 -9 -20 -16 -20 -6 -1
-13 -3 -14 -4 -8 -7 -47 -6 -42 1 3 5 -1 9 -10 9 -8 0 -16 4 -18 9 -1 5 -12
11 -23 13 -11 1 -26 10 -33 18 -10 11 -12 11 -6 1 5 -9 3 -12 -4 -7 -7 4 -12
14 -12 23 0 11 -3 13 -13 5 -10 -8 -16 -6 -26 10 -11 17 -11 22 0 29 8 4 20 3
28 -4 12 -9 13 -9 7 1 -5 8 1 12 18 13 14 1 41 2 59 3 20 1 31 7 29 15 -1 7 2
10 6 7 5 -3 17 3 27 14 22 25 32 26 14 3z m188 2 c0 -8 -4 -12 -9 -9 -5 3 -6
10 -3 15 9 13 12 11 12 -6z m53 5 c0 -5 -4 -10 -10 -10 -5 0 -10 5 -10 10 0 6
5 10 10 10 6 0 10 -4 10 -10z m325 0 c3 -5 1 -10 -4 -10 -6 0 -11 5 -11 10 0
6 2 10 4 10 3 0 8 -4 11 -10z m-25 -10 c0 -5 -2 -10 -4 -10 -3 0 -8 5 -11 10
-3 6 -1 10 4 10 6 0 11 -4 11 -10z m-483 -15 c0 -17 -13 -20 -21 -6 -4 5 0 12
6 14 7 3 13 6 14 6 0 1 1 -6 1 -14z m1573 -29 c0 -8 -9 -14 -19 -13 -15 1 -17
4 -9 14 14 17 28 16 28 -1z m-1849 -19 c-10 -9 -11 -8 -5 6 3 10 9 15 12 12 3
-3 0 -11 -7 -18z m-76 -7 c3 -5 1 -10 -4 -10 -6 0 -11 5 -11 10 0 6 2 10 4 10
3 0 8 -4 11 -10z m720 -10 c3 -5 1 -10 -4 -10 -6 0 -11 5 -11 10 0 6 2 10 4
10 3 0 8 -4 11 -10z m-775 -10 c-20 -13 -43 -13 -35 0 3 6 16 10 28 10 18 0
19 -2 7 -10z m-35 -109 c3 -5 1 -12 -5 -16 -5 -3 -10 1 -10 9 0 18 6 21 15 7z
m689 -76 c-4 -8 -8 -15 -10 -15 -2 0 -4 7 -4 15 0 8 4 15 10 15 5 0 7 -7 4
-15z"/>
<path d="M4228 4981 c-19 -41 -21 -61 -12 -111 5 -20 10 -27 15 -19 4 7 3 23
-2 36 -5 14 -9 36 -9 50 0 21 2 24 15 13 13 -11 15 -7 15 29 0 22 -1 41 -2 41
-2 0 -11 -18 -20 -39z"/>
<path d="M2668 4194 c3 -20 8 -31 12 -25 9 16 5 54 -6 58 -6 2 -8 -12 -6 -33z"/>
<path d="M2700 4204 c0 -8 5 -12 10 -9 6 3 10 10 10 16 0 5 -4 9 -10 9 -5 0
-10 -7 -10 -16z"/>
<path d="M2680 4036 c0 -23 -19 -30 -36 -14 -3 4 -12 4 -20 1 -8 -3 -17 2 -20
11 -4 10 -11 13 -22 8 -10 -5 -30 -8 -47 -8 -16 1 -33 -3 -36 -7 -4 -5 -18
-10 -32 -10 -14 -1 -23 -5 -21 -9 2 -4 0 -9 -6 -13 -5 -3 -10 -1 -10 5 0 7 -7
7 -22 -2 -27 -14 -26 -14 -110 -31 -44 -9 -69 -10 -71 -4 -2 6 -11 -7 -21 -28
-15 -31 -16 -39 -5 -46 9 -5 10 -9 3 -9 -13 0 -23 -21 -30 -60 -3 -14 -9 -26
-13 -28 -13 -5 1 -56 21 -75 18 -17 19 -17 27 5 l8 22 12 -23 c11 -19 15 -20
28 -9 9 7 18 12 20 11 1 -2 22 -2 46 -2 23 1 34 3 25 6 -14 4 -16 8 -8 24 15
28 27 24 46 -18 10 -20 20 -31 22 -25 3 9 9 9 23 1 11 -6 41 -9 65 -8 27 2 48
-2 53 -9 5 -9 18 -9 57 0 43 10 52 16 60 43 9 29 8 32 -8 27 -11 -3 -18 1 -18
10 0 8 -6 15 -12 16 -7 0 -31 7 -53 15 -22 8 -67 18 -100 22 -114 15 -107 64
10 69 36 2 65 0 65 -4 0 -4 18 -5 40 -3 22 2 48 -1 57 -7 16 -9 15 -10 -7 -9
-39 3 -60 0 -60 -9 0 -5 15 -7 33 -6 30 3 30 3 7 -6 -19 -7 -10 -8 35 -5 33 2
51 2 40 -1 -27 -8 -39 -20 -26 -28 6 -4 11 -3 11 3 0 5 14 12 30 16 17 4 30
11 30 16 0 6 -4 8 -10 4 -5 -3 -8 7 -7 24 1 16 6 27 11 24 5 -3 6 0 4 8 -3 8
-11 13 -18 11 -11 -2 -11 0 -1 12 10 12 8 16 -9 21 -16 5 -19 10 -11 18 7 7 7
16 0 30 -9 15 -8 18 2 12 9 -6 11 -3 6 9 -4 10 -7 22 -7 27 0 5 -4 9 -10 9 -5
0 -10 -11 -10 -24z m-100 -119 c-14 -8 -27 -12 -30 -10 -7 6 23 23 40 23 8 0
4 -6 -10 -13z m-63 -3 c-3 -3 -12 -4 -19 -1 -8 3 -5 6 6 6 11 1 17 -2 13 -5z
m113 -8 c0 -2 -11 -6 -25 -8 -13 -3 -22 -1 -19 3 5 9 44 13 44 5z m77 -42 c-3
-3 -12 -4 -19 -1 -8 3 -5 6 6 6 11 1 17 -2 13 -5z m-190 -117 c-1 -5 -13 -14
-25 -18 -19 -7 -20 -6 -10 16 10 22 43 25 35 2z"/>
<path d="M1535 4025 c-23 -10 -25 -13 -10 -13 28 -1 61 13 49 20 -5 3 -22 0
-39 -7z"/>
<path d="M1520 3988 c23 -11 23 -12 5 -15 -12 -2 -27 -13 -34 -24 -10 -17 -10
-20 1 -13 9 5 9 2 -2 -10 -14 -17 -12 -18 27 -15 23 3 40 2 38 -2 -2 -3 34 -5
80 -3 67 2 91 -1 122 -17 21 -11 37 -23 36 -27 -1 -3 -45 -12 -98 -19 -96 -12
-182 -47 -155 -63 8 -5 5 -9 -9 -13 -12 -3 -21 -11 -21 -19 0 -9 18 -13 70
-13 62 -1 69 1 67 19 -3 29 22 31 32 3 7 -19 19 -26 47 -29 32 -4 39 -1 54 24
15 25 19 27 30 13 11 -13 10 -18 -4 -28 -14 -10 -9 -12 33 -12 43 0 48 2 40
17 -13 24 -11 34 3 20 20 -20 75 -15 81 7 2 10 1 25 -4 32 -5 8 -9 29 -9 47 0
18 -7 43 -16 57 -16 24 -79 55 -114 55 -11 0 -20 5 -20 11 0 6 -7 9 -15 5 -8
-3 -15 -2 -15 2 0 4 -25 8 -55 8 -30 1 -55 -3 -55 -8 0 -5 -9 -4 -20 2 -16 8
-26 7 -42 -5 -13 -8 -31 -15 -41 -15 -9 0 -20 -7 -23 -15 -4 -8 -11 -15 -17
-15 -5 0 -2 9 8 20 28 30 26 46 -4 47 l-26 2 25 -11z m199 -162 c-2 -2 -26 -6
-54 -9 -32 -4 -43 -3 -30 3 19 8 93 14 84 6z m-109 -20 c0 -2 -7 -7 -16 -10
-8 -3 -12 -2 -9 4 6 10 25 14 25 6z"/>
<path d="M1565 3991 c-3 -5 -2 -12 3 -15 5 -3 9 1 9 9 0 17 -3 19 -12 6z"/>
<path d="M2635 3820 c-3 -5 -1 -10 4 -10 6 0 11 5 11 10 0 6 -2 10 -4 10 -3 0
-8 -4 -11 -10z"/>
<path d="M1732 3684 c-12 -8 -22 -20 -22 -26 0 -16 73 1 93 23 17 18 17 19
-15 19 -19 0 -44 -7 -56 -16z"/>
<path d="M2313 3693 c9 -2 17 -8 17 -13 0 -4 11 -11 24 -14 13 -3 31 -8 38
-11 9 -4 15 0 15 9 0 17 -48 37 -86 35 -17 -1 -20 -3 -8 -6z"/>
<path d="M1130 3680 c0 -5 20 -10 45 -10 25 0 45 5 45 10 0 6 -20 10 -45 10
-25 0 -45 -4 -45 -10z"/>
<path d="M1337 3488 c-3 -12 -2 -29 3 -37 7 -12 9 -6 10 22 0 42 -5 48 -13 15z"/>
<path d="M2255 3430 c3 -5 8 -10 11 -10 2 0 4 5 4 10 0 6 -5 10 -11 10 -5 0
-7 -4 -4 -10z"/>
<path d="M2282 3343 c-1 -17 -6 -34 -11 -38 -5 -3 -32 4 -60 15 -39 15 -57 17
-77 10 -31 -12 -134 -13 -152 -1 -16 10 -92 -28 -92 -46 0 -6 12 -21 27 -32
27 -22 42 -21 95 4 16 8 30 9 34 4 8 -14 40 -11 54 6 14 17 45 21 35 5 -3 -5
1 -10 9 -10 8 0 18 -9 21 -20 3 -11 14 -20 23 -20 15 0 15 2 2 10 -9 6 -10 10
-3 10 6 0 15 -4 18 -10 9 -15 25 -12 19 4 -3 8 4 16 19 19 31 8 50 45 44 88
l-4 34 -1 -32z"/>
<path d="M2706 3171 c-4 -7 -5 -15 -2 -18 9 -9 19 4 14 18 -4 11 -6 11 -12 0z"/>
<path d="M2220 3110 c0 -19 -4 -21 -22 -15 -53 16 -67 16 -95 1 -25 -12 -37
-13 -68 -4 -30 10 -49 9 -106 -6 -39 -10 -81 -15 -98 -11 -41 9 -81 -38 -81
-96 0 -25 20 -24 67 4 60 35 100 43 183 35 41 -4 113 -5 159 -3 61 4 87 1 93
-8 11 -17 10 -27 -3 -27 -13 0 -43 -29 -37 -36 3 -2 25 7 49 21 45 26 84 31
108 16 21 -14 41 -2 41 25 0 39 -30 89 -61 103 -27 12 -32 11 -44 -5 -7 -10
-12 -21 -10 -25 2 -3 -9 -4 -24 -1 -20 3 -27 9 -27 24 1 12 -5 23 -11 25 -8 3
-13 -4 -13 -17z"/>
<path d="M1940 2910 c0 -7 -7 -10 -15 -6 -8 3 -15 3 -15 -1 0 -11 51 -53 66
-53 7 0 13 -6 12 -12 -3 -15 90 -19 99 -5 2 4 10 4 16 -1 7 -6 23 -9 37 -7 14
1 34 3 45 4 15 1 17 3 7 10 -11 6 -7 13 14 30 15 12 24 24 21 27 -3 4 -63 5
-132 5 -85 -1 -131 2 -141 10 -11 9 -14 9 -14 -1z"/>
<path d="M690 3681 c0 -10 19 -25 25 -20 1 2 -3 10 -11 17 -8 7 -14 8 -14 3z"/>
<path d="M717 3226 c-4 -10 -1 -13 8 -9 8 3 12 9 9 14 -7 12 -11 11 -17 -5z"/>
<path d="M672 2560 c0 -14 2 -19 5 -12 2 6 2 18 0 25 -3 6 -5 1 -5 -13z"/>
<path d="M660 2491 c-5 -11 -10 -28 -9 -38 0 -11 5 -7 11 12 6 17 16 33 22 37
8 5 7 8 -1 8 -7 0 -17 -9 -23 -19z"/>
<path d="M765 2580 c3 -5 14 -10 23 -10 15 0 15 2 2 10 -20 13 -33 13 -25 0z"/>
<path d="M770 2545 c-19 -22 -8 -25 13 -3 9 10 13 18 8 18 -5 0 -14 -7 -21
-15z"/>
<path d="M2717 2247 c-2 -7 -1 -21 4 -32 7 -18 8 -18 8 -2 1 10 5 16 10 12 5
-3 12 -2 15 3 2 4 -4 13 -14 20 -14 8 -19 8 -23 -1z"/>
<path d="M2695 2210 c3 -5 8 -10 11 -10 2 0 4 5 4 10 0 6 -5 10 -11 10 -5 0
-7 -4 -4 -10z"/>
<path d="M2660 2180 c0 -5 5 -10 11 -10 5 0 7 5 4 10 -3 6 -8 10 -11 10 -2 0
-4 -4 -4 -10z"/>
<path d="M2727 2173 c-9 -2 -15 -9 -12 -14 9 -14 22 -11 29 6 3 8 4 14 3 14
-1 -1 -10 -3 -20 -6z"/>
<path d="M2596 2135 c-3 -8 -1 -15 4 -15 6 0 10 7 10 15 0 8 -2 15 -4 15 -2 0
-6 -7 -10 -15z"/>
<path d="M2510 2036 c0 -2 7 -7 16 -10 8 -3 12 -2 9 4 -6 10 -25 14 -25 6z"/>
<path d="M2324 2198 c-3 -5 -10 -5 -16 -2 -7 4 -8 2 -4 -5 6 -9 11 -9 21 -1
10 8 14 8 17 -2 3 -8 6 -7 10 3 6 17 -19 23 -28 7z"/>
<path d="M4283 4590 c-20 -34 -23 -53 -23 -144 0 -61 -4 -106 -10 -106 -5 0
-28 -28 -51 -62 -23 -35 -49 -69 -57 -76 -15 -11 -15 -14 1 -27 9 -8 15 -12
12 -9 -7 10 15 45 24 39 5 -2 8 3 7 13 0 9 5 16 12 14 8 -1 11 2 8 7 -3 5 1
12 10 15 8 3 12 11 8 17 -4 8 -3 9 4 5 8 -5 12 -44 12 -116 l0 -108 -99 -79
c-79 -63 -101 -86 -112 -118 -7 -22 -12 -44 -11 -48 4 -15 -36 -58 -43 -47 -3
5 -3 15 0 20 3 6 1 10 -4 10 -7 0 -11 -38 -11 -106 l0 -106 28 53 c19 37 35
55 54 60 37 10 78 0 78 -20 0 -9 9 2 19 24 21 46 96 137 105 127 4 -3 6 106 6
242 -1 164 2 252 9 259 8 8 11 -72 12 -273 1 -157 3 -301 5 -320 1 -19 -2 -41
-6 -50 -8 -12 -9 -10 -10 8 0 36 -17 17 -25 -28 -4 -21 -20 -58 -36 -80 -24
-33 -33 -39 -47 -31 -14 8 -29 -1 -75 -46 -31 -30 -57 -59 -57 -64 0 -5 -4 -9
-10 -9 -5 0 -10 4 -10 10 0 5 -9 24 -20 42 l-20 33 0 -77 c0 -57 3 -77 13 -75
6 1 15 7 19 12 5 6 8 5 8 -4 0 -11 3 -11 15 -1 8 7 13 16 10 20 -8 12 85 120
103 120 12 0 13 -48 1 -56 -5 -3 -6 2 -2 11 5 15 3 15 -16 3 -14 -8 -20 -20
-17 -31 3 -11 2 -17 0 -14 -10 10 -73 -69 -78 -97 -5 -28 -5 -28 15 -10 11 10
17 24 14 31 -2 8 -1 12 3 9 14 -8 114 100 112 120 -4 39 0 50 11 31 10 -18 14
-16 50 19 23 22 39 48 39 61 0 14 5 21 13 17 7 -2 22 4 32 16 15 17 16 24 7
46 -7 15 -8 23 -2 19 6 -4 10 9 10 32 0 27 -6 44 -21 56 -11 10 -18 21 -15 24
3 3 12 0 21 -7 8 -7 15 -8 15 -3 0 5 -9 17 -21 27 -17 14 -20 25 -15 49 3 18
13 37 21 43 12 9 15 36 15 130 l-1 119 -18 -35 -19 -35 -1 126 c0 111 2 129
18 143 19 18 29 106 11 106 -12 0 -23 -37 -14 -51 4 -7 3 -9 -4 -5 -5 3 -13 0
-15 -6 -3 -7 -6 26 -6 74 -1 78 1 89 24 116 26 31 30 42 18 42 -5 0 -18 -18
-30 -40z m-11 -952 c-7 -7 -12 -8 -12 -2 0 6 3 14 7 17 3 4 9 5 12 2 2 -3 -1
-11 -7 -17z m-62 -82 c0 -2 -7 -9 -15 -16 -13 -11 -14 -10 -9 4 5 14 24 23 24
12z"/>
<path d="M4312 4550 c0 -19 2 -27 5 -17 2 9 2 25 0 35 -3 9 -5 1 -5 -18z"/>
<path d="M4229 4488 c-5 -15 -2 -138 4 -138 4 0 7 32 7 70 0 39 -2 70 -5 70
-3 0 -5 -1 -6 -2z"/>
<path d="M4189 4443 c-13 -15 -12 -15 9 -4 23 12 28 21 13 21 -5 0 -15 -7 -22
-17z"/>
<path d="M32 4280 c0 -14 2 -19 5 -12 2 6 2 18 0 25 -3 6 -5 1 -5 -13z"/>
<path d="M4099 4126 c-23 -21 -34 -39 -29 -46 5 -8 18 3 39 34 18 25 31 46 29
46 -2 0 -19 -16 -39 -34z"/>
<path d="M3991 4064 c0 -11 3 -14 6 -6 3 7 2 16 -1 19 -3 4 -6 -2 -5 -13z"/>
<path d="M4041 4036 c-12 -13 -23 -33 -24 -45 -1 -15 -6 -20 -16 -16 -9 3 -12
3 -9 -1 4 -3 -4 -18 -18 -32 -13 -15 -24 -33 -24 -40 0 -7 -6 -15 -13 -18 -8
-3 -14 -12 -14 -20 0 -12 5 -10 17 6 11 15 19 19 23 11 4 -8 5 -7 3 1 -5 20
22 66 44 78 11 6 19 16 17 23 -1 7 4 11 12 9 12 -3 12 0 1 12 -7 9 -8 16 -4
16 5 0 15 9 22 20 16 27 10 25 -17 -4z"/>
<path d="M3865 3783 c-38 -60 -69 -130 -47 -108 4 4 7 10 7 13 0 4 11 26 25
50 20 36 26 40 32 25 5 -14 7 -13 6 7 0 14 3 33 7 43 12 29 1 18 -30 -30z"/>
<path d="M3915 3703 c-10 -18 -23 -33 -27 -33 -4 0 -8 -4 -8 -9 0 -5 -5 -22
-12 -38 -6 -15 -10 -33 -9 -39 0 -6 -6 -17 -15 -25 -13 -10 -17 -10 -23 0 -6
10 -13 7 -25 -10 -13 -18 -19 -21 -25 -11 -6 10 -12 6 -25 -14 -22 -33 -37
-264 -17 -264 6 0 11 6 11 13 0 8 10 19 23 26 12 7 53 55 91 107 38 52 70 93
72 91 2 -2 -5 -21 -16 -42 -23 -45 -25 -65 -7 -65 8 -1 7 -5 -3 -13 -23 -18
-50 -59 -50 -76 0 -10 7 -8 24 8 l24 23 7 -42 c6 -37 8 -40 21 -23 17 23 19
123 2 123 -10 0 -10 2 0 8 9 7 12 48 10 173 l-3 164 -20 -32z m-61 -170 c-44
-59 -54 -68 -29 -28 31 50 50 74 57 75 5 0 -8 -21 -28 -47z m73 -185 c-3 -8
-6 -5 -6 6 -1 11 2 17 5 13 3 -3 4 -12 1 -19z m-177 -38 c0 -5 -4 -10 -10 -10
-5 0 -10 5 -10 10 0 6 5 10 10 10 6 0 10 -4 10 -10z"/>
<path d="M3795 3661 c5 -9 -2 -23 -21 -40 -17 -14 -24 -22 -17 -17 8 5 15 2
20 -10 5 -14 9 -9 20 21 10 29 10 41 2 49 -9 8 -10 7 -4 -3z"/>
<path d="M4061 3634 c0 -11 3 -14 6 -6 3 7 2 16 -1 19 -3 4 -6 -2 -5 -13z"/>
<path d="M4298 3573 c-16 -17 -18 -43 -18 -226 0 -114 4 -207 9 -207 27 0 31
33 29 240 -3 203 -4 211 -20 193z"/>
<path d="M4023 3569 c-25 -9 -31 -29 -9 -29 14 0 42 27 35 34 -2 2 -14 0 -26
-5z"/>
<path d="M4193 3452 c-69 -83 -88 -119 -36 -69 21 20 42 37 46 37 13 0 7 -55
-8 -74 -20 -26 -20 -57 0 -50 11 5 15 -1 15 -24 0 -16 -7 -35 -15 -42 -11 -9
-15 -32 -15 -80 0 -54 -4 -70 -20 -85 -11 -10 -20 -23 -20 -28 0 -6 -8 -20
-17 -31 l-18 -20 25 20 c14 10 49 39 78 63 l53 45 -3 155 c-1 86 -4 176 -7
201 l-6 45 -52 -63z"/>
<path d="M3970 3265 c-7 -9 -10 -18 -7 -21 3 -3 10 4 17 15 13 25 8 27 -10 6z"/>
<path d="M3835 3240 c3 -5 8 -10 11 -10 2 0 4 5 4 10 0 6 -5 10 -11 10 -5 0
-7 -4 -4 -10z"/>
<path d="M3724 3172 l-1 -67 10 58 c5 34 6 62 1 67 -5 5 -9 -20 -10 -58z"/>
<path d="M3890 3229 c0 -5 5 -7 10 -4 6 3 10 8 10 11 0 2 -4 4 -10 4 -5 0 -10
-5 -10 -11z"/>
<path d="M3880 3159 c-36 -40 -67 -77 -69 -83 -2 -6 -22 -38 -45 -71 l-41 -60
5 -146 5 -147 65 59 c35 32 62 60 59 64 -10 10 -58 -17 -74 -42 -9 -12 -20
-23 -25 -23 -12 0 -13 47 -1 54 5 4 5 23 -1 48 -5 24 -7 50 -5 60 3 10 1 34
-3 54 -8 33 -5 40 29 78 21 22 40 48 44 56 3 8 27 41 54 74 97 119 99 130 3
25z"/>
<path d="M650 3016 c0 -8 4 -17 8 -20 4 -2 8 4 8 15 0 10 -4 19 -8 19 -4 0 -8
-6 -8 -14z"/>
<path d="M4062 2969 c-12 -5 -25 -17 -29 -26 -4 -10 -11 -21 -17 -25 -7 -5 -7
-8 -1 -8 11 1 79 60 73 65 -1 1 -13 -1 -26 -6z"/>
<path d="M1383 2915 c0 -33 2 -45 4 -27 2 18 2 45 0 60 -2 15 -4 0 -4 -33z"/>
<path d="M3850 2891 c0 -25 6 -27 13 -6 4 8 2 17 -3 20 -6 4 -10 -3 -10 -14z"/>
<path d="M3900 2900 c0 -5 5 -10 10 -10 6 0 10 5 10 10 0 6 -4 10 -10 10 -5 0
-10 -4 -10 -10z"/>
<path d="M3840 2854 c0 -17 17 -36 24 -26 3 5 -1 15 -9 22 -8 7 -15 9 -15 4z"/>
<path d="M550 2784 c0 -8 5 -12 10 -9 6 4 8 11 5 16 -9 14 -15 11 -15 -7z"/>
<path d="M1130 2510 c0 -22 4 -28 15 -24 8 4 15 14 15 24 0 10 -7 20 -15 24
-11 4 -15 -2 -15 -24z"/>
<path d="M50 2411 c0 -5 5 -13 10 -16 6 -3 10 -2 10 4 0 5 -4 13 -10 16 -5 3
-10 2 -10 -4z"/>
<path d="M3328 2413 c7 -3 16 -2 19 1 4 3 -2 6 -13 5 -11 0 -14 -3 -6 -6z"/>
<path d="M204 2388 c-4 -6 -3 -8 4 -4 5 3 13 0 15 -6 3 -8 6 -6 6 5 1 19 -14
23 -25 5z"/>
<path d="M3290 2390 c-13 -9 -13 -10 0 -10 8 0 22 5 30 10 13 9 13 10 0 10 -8
0 -22 -5 -30 -10z"/>
<path d="M122 2351 c-17 -24 -19 -30 -7 -35 8 -3 15 -1 15 4 0 6 5 10 10 10 6
0 3 -11 -6 -25 -9 -14 -21 -22 -28 -18 -6 3 -1 -4 12 -16 24 -24 29 -51 9 -51
-7 0 -19 6 -26 13 -11 10 -12 8 -3 -9 7 -13 24 -23 41 -26 26 -4 30 -1 35 28
4 17 2 43 -3 57 -5 14 -8 27 -5 29 2 3 -2 19 -9 37 l-13 31 -22 -29z m48 -95
c0 -3 -4 -8 -10 -11 -5 -3 -10 -1 -10 4 0 6 5 11 10 11 6 0 10 -2 10 -4z"/>
<path d="M314 2321 c11 -12 25 -21 32 -21 7 0 15 -6 17 -12 4 -9 6 -8 6 2 0 8
-16 23 -37 34 l-37 18 19 -21z"/>
<path d="M220 2301 c0 -6 4 -11 10 -11 5 0 7 -8 4 -17 -5 -15 -3 -15 10 1 16
20 16 19 16 -1 0 -17 -5 -21 -25 -18 -21 2 -25 -2 -25 -22 0 -14 4 -21 10 -18
6 3 10 2 10 -3 0 -6 9 -8 20 -5 18 5 21 12 18 52 -3 39 -6 46 -25 49 -13 2
-23 -1 -23 -7z"/>
<path d="M1887 2269 c7 -7 15 -10 18 -7 3 3 -2 9 -12 12 -14 6 -15 5 -6 -5z"/>
<path d="M3288 2253 c7 -3 16 -2 19 1 4 3 -2 6 -13 5 -11 0 -14 -3 -6 -6z"/>
<path d="M339 2245 c-4 -5 -5 -18 -4 -27 2 -10 -1 -18 -6 -18 -15 0 -10 -17 7
-24 8 -3 12 -2 9 4 -3 6 3 10 14 10 17 0 20 -5 16 -32 -5 -32 -5 -32 4 -5 5
15 6 39 1 55 -5 15 -9 20 -9 10 -2 -29 -19 -21 -23 10 -2 15 -6 23 -9 17z"/>
<path d="M3195 2230 c-3 -6 1 -7 9 -4 18 7 21 14 7 14 -6 0 -13 -4 -16 -10z"/>
<path d="M3462 2225 c-11 -12 -10 -15 3 -15 8 0 15 7 15 15 0 18 -2 18 -18 0z"/>
<path d="M261 2193 c-1 -7 -10 -13 -21 -13 -17 0 -19 -2 -8 -14 7 -8 17 -12
21 -9 5 3 15 -4 23 -16 17 -23 37 -20 28 4 -4 8 -10 13 -14 10 -5 -3 -13 7
-18 22 -6 16 -11 22 -11 16z"/>
<path d="M4108 2182 c-16 -9 -28 -25 -28 -37 1 -19 1 -19 13 3 7 12 15 21 18
19 2 -2 12 5 22 15 21 22 11 23 -25 0z"/>
<path d="M4175 2140 c-4 -24 -15 -46 -28 -55 -12 -8 -16 -15 -10 -15 6 0 16 7
23 15 7 8 16 12 21 9 5 -3 9 15 9 40 0 57 -6 59 -15 6z"/>
<path d="M1 2053 c0 -65 3 -112 6 -105 8 19 22 14 16 -7 -3 -11 2 -21 11 -24
10 -4 13 -1 9 9 -3 7 0 14 6 14 6 0 11 -9 11 -21 0 -15 -4 -19 -15 -15 -8 3
-22 9 -30 12 -11 4 -15 0 -15 -15 0 -17 6 -21 30 -21 17 0 30 -5 30 -11 0 -7
-12 -10 -30 -7 l-30 5 1 -266 c1 -261 1 -264 15 -186 17 101 33 162 51 198 19
38 9 63 -30 72 -23 5 -27 9 -14 12 10 3 29 -3 43 -11 23 -16 25 -16 35 11 46
118 60 161 63 183 2 14 15 39 30 55 14 15 25 33 23 38 -1 5 -41 25 -87 44 -47
19 -92 41 -100 49 -20 19 1 18 48 -3 20 -9 40 -17 44 -17 3 -1 10 -4 14 -8 4
-5 14 -8 22 -8 8 0 30 -8 49 -17 34 -16 36 -16 49 2 16 21 14 38 -4 41 -7 1
-8 0 -2 -3 13 -6 13 -23 -1 -23 -6 0 -51 19 -100 41 -82 39 -108 58 -76 59 12
1 -51 39 -65 40 -5 0 -8 -53 -7 -117z m154 -153 c-5 -23 -10 -29 -18 -21 -7 7
-7 18 2 37 15 34 25 25 16 -16z m-35 -12 c0 -10 -9 -9 -35 2 -11 5 -14 9 -7 9
6 1 12 9 12 19 1 15 2 15 15 -2 8 -11 15 -23 15 -28z"/>
<path d="M4140 2160 c-12 -7 -10 -9 8 -7 12 0 22 5 22 9 0 11 -12 10 -30 -2z"/>
<path d="M330 2128 c0 -36 11 -31 15 7 2 14 -1 25 -6 25 -5 0 -9 -14 -9 -32z"/>
<path d="M4040 2140 c0 -5 -12 -10 -26 -10 -15 0 -23 -4 -19 -11 4 -6 13 -8
21 -5 9 3 14 -1 14 -12 1 -15 2 -15 15 2 17 23 20 46 5 46 -5 0 -10 -4 -10
-10z"/>
<path d="M104 2116 c11 -9 24 -16 30 -16 12 0 7 5 -24 19 -24 11 -24 11 -6 -3z"/>
<path d="M215 2100 c3 -5 8 -10 11 -10 2 0 4 5 4 10 0 6 -5 10 -11 10 -5 0 -7
-4 -4 -10z"/>
<path d="M2930 2100 c0 -5 7 -10 16 -10 8 0 12 5 9 10 -3 6 -10 10 -16 10 -5
0 -9 -4 -9 -10z"/>
<path d="M170 2085 c14 -8 30 -14 35 -14 6 0 -1 6 -15 14 -14 8 -29 14 -35 14
-5 0 1 -6 15 -14z"/>
<path d="M275 2070 c-3 -5 -1 -10 4 -10 6 0 11 5 11 10 0 6 -2 10 -4 10 -3 0
-8 -4 -11 -10z"/>
<path d="M2838 2073 c7 -3 16 -2 19 1 4 3 -2 6 -13 5 -11 0 -14 -3 -6 -6z"/>
<path d="M2887 2014 c-5 -28 -1 -30 19 -10 18 18 18 22 0 29 -9 4 -16 -3 -19
-19z"/>
<path d="M2957 2033 c-11 -10 -8 -20 6 -20 8 0 14 6 14 14 0 14 -10 17 -20 6z"/>
<path d="M4147 2013 c-11 -11 -8 -20 7 -20 8 0 12 6 9 14 -6 15 -7 15 -16 6z"/>
<path d="M2798 1993 c7 -3 16 -2 19 1 4 3 -2 6 -13 5 -11 0 -14 -3 -6 -6z"/>
<path d="M2925 1980 c3 -5 8 -10 11 -10 2 0 4 5 4 10 0 6 -5 10 -11 10 -5 0
-7 -4 -4 -10z"/>
<path d="M1986 1935 c-3 -8 -1 -15 4 -15 6 0 10 7 10 15 0 8 -2 15 -4 15 -2 0
-6 -7 -10 -15z"/>
<path d="M2390 1880 c0 -5 5 -10 10 -10 6 0 10 5 10 10 0 6 -4 10 -10 10 -5 0
-10 -4 -10 -10z"/>
<path d="M1910 1855 c-2 -11 -4 -33 -5 -50 -1 -16 -5 -38 -10 -48 -13 -30 2
-30 16 0 9 18 12 44 8 73 -3 25 -7 36 -9 25z"/>
<path d="M1949 1853 c0 -5 -2 -16 -4 -25 -2 -10 2 -18 9 -18 9 0 12 9 8 25 -4
24 -11 33 -13 18z"/>
<path d="M1979 1838 c-7 -25 -7 -48 1 -48 5 0 9 11 8 25 -2 21 -6 32 -9 23z"/>
<path d="M1945 1772 c3 -3 -1 -12 -7 -21 -10 -13 -10 -14 2 -3 24 21 26 14 22
-55 -4 -58 -3 -65 12 -60 9 4 32 -1 51 -10 34 -16 36 -16 60 7 15 14 24 33 24
49 -2 24 -2 24 -6 4 -5 -26 -39 -53 -65 -53 -30 0 -58 36 -56 72 1 45 -9 75
-27 75 -8 0 -13 -3 -10 -5z"/>
<path d="M3805 1760 c3 -5 8 -10 11 -10 2 0 4 5 4 10 0 6 -5 10 -11 10 -5 0
-7 -4 -4 -10z"/>
<path d="M2040 1750 c-12 -8 -11 -10 8 -10 12 0 22 5 22 10 0 13 -11 13 -30 0z"/>
<path d="M1932 1705 c0 -16 2 -22 5 -12 2 9 2 23 0 30 -3 6 -5 -1 -5 -18z"/>
<path d="M2050 1695 c-1 -11 -4 -14 -7 -7 -8 19 -23 14 -23 -8 0 -21 16 -26
39 -11 10 7 11 13 2 27 -10 18 -10 18 -11 -1z"/>
<path d="M3770 1674 c-7 -19 -10 -44 -7 -55 3 -10 1 -19 -3 -19 -5 0 -12 -19
-16 -42 -11 -57 -12 -60 -13 -81 -1 -12 -6 -16 -13 -11 -10 6 -10 4 0 -7 15
-16 17 -159 1 -159 -6 0 -7 -5 -2 -12 14 -23 9 -132 -7 -146 -9 -9 -10 -11 -2
-7 11 6 13 -1 9 -28 -6 -44 -14 -58 -32 -51 -10 4 -13 -2 -10 -27 3 -18 8 -35
13 -38 5 -3 8 -17 6 -31 -1 -14 -3 -29 -3 -34 -1 -4 -7 -6 -14 -3 -14 5 -15
-15 -3 -45 17 -39 -26 -44 -60 -7 -15 17 -15 19 -1 19 9 0 21 -8 26 -17 10
-17 10 -17 11 0 0 11 -9 21 -20 24 -24 6 -21 29 4 27 19 -2 21 11 4 22 -6 4
-13 3 -15 -3 -2 -6 -13 -9 -24 -6 -20 6 -21 30 0 25 14 -3 14 4 -1 27 -11 18
-12 18 -27 2 -9 -9 -12 -11 -7 -4 6 9 2 13 -13 13 -14 0 -21 6 -21 20 0 11 -4
20 -10 20 -5 0 -6 -7 -3 -17 4 -11 3 -14 -5 -9 -9 5 -10 -3 -6 -31 4 -21 7
-45 7 -53 0 -8 5 -21 10 -29 6 -7 12 -52 13 -100 1 -47 5 -105 8 -128 3 -26 2
-43 -4 -43 -6 0 -10 5 -10 10 0 6 -10 8 -24 4 -16 -4 -33 0 -48 11 l-23 17 27
-4 c23 -4 25 -3 15 13 -18 29 -34 30 -51 4 -12 -18 -12 -25 -3 -28 17 -6 4
-18 -22 -20 -28 -2 -27 -15 2 -26 13 -5 29 -17 37 -27 9 -11 10 -15 3 -10 -8
4 -13 1 -13 -9 0 -9 -4 -13 -10 -10 -5 3 -18 1 -27 -4 -17 -10 -16 -11 2 -12
11 -1 23 -1 27 0 4 0 5 -6 1 -14 -3 -10 -12 -13 -24 -10 -11 4 -19 3 -19 -2 1
-16 28 -43 44 -43 9 0 16 -4 16 -9 0 -5 -9 -7 -20 -4 -18 5 -21 1 -18 -31 1
-20 5 -36 9 -36 4 0 6 -15 4 -32 -1 -18 2 -44 7 -57 6 -17 5 -27 -4 -33 -10
-6 -10 -10 2 -18 13 -9 13 -11 1 -19 -12 -8 -13 -15 -3 -35 8 -19 8 -26 -1
-30 -8 -3 -6 -9 6 -19 12 -10 14 -17 7 -22 -5 -3 -8 -11 -5 -16 4 -5 2 -9 -4
-9 -13 0 -41 41 -35 52 3 4 1 8 -5 8 -6 0 -8 6 -5 14 3 7 -1 20 -9 27 -7 8
-12 20 -9 28 3 8 0 11 -7 7 -6 -4 -11 -1 -11 9 0 8 -10 20 -22 25 -14 5 -17 9
-7 9 8 1 20 -4 26 -10 13 -13 33 -4 33 17 0 8 5 14 12 14 9 0 9 3 1 11 -6 6
-9 18 -6 25 3 8 0 14 -6 14 -6 0 -8 6 -5 14 3 7 -2 21 -11 30 -15 14 -15 16
-1 16 9 0 16 -4 16 -10 0 -5 5 -10 11 -10 7 0 8 7 4 18 -4 9 -7 27 -6 40 0 12
-3 22 -7 22 -5 0 -17 7 -28 16 -10 8 -13 13 -6 9 7 -3 12 0 12 8 0 8 -9 17
-21 20 -12 3 -18 10 -14 16 3 6 12 8 18 4 7 -4 6 0 -2 10 -7 9 -11 17 -7 17 3
0 -2 8 -11 18 -18 18 -58 18 -47 1 3 -5 0 -9 -7 -9 -17 0 -5 -11 18 -15 10 -2
20 -4 22 -4 2 -1 -2 -8 -10 -17 -12 -14 -14 -14 -25 1 -12 17 -39 12 -29 -5 3
-5 0 -12 -6 -16 -8 -4 -9 -3 -5 4 4 7 1 12 -8 12 -19 0 -20 -12 -3 -29 10 -10
8 -11 -8 -5 -20 7 -20 7 -2 -14 11 -11 16 -25 13 -30 -3 -5 6 -14 19 -20 26
-12 33 -28 15 -34 -17 -6 1 -47 23 -50 11 -2 23 -9 25 -17 3 -10 0 -12 -12 -8
-10 4 -19 1 -22 -8 -4 -8 -10 -12 -15 -9 -5 3 -4 -6 3 -20 6 -14 14 -26 18
-26 4 0 12 -11 18 -25 10 -21 9 -27 -3 -32 -14 -5 -14 -8 1 -31 15 -23 15 -25
0 -19 -22 9 -20 -6 3 -27 10 -9 27 -14 37 -11 10 3 6 -1 -10 -8 -23 -11 -25
-15 -12 -20 13 -5 15 -15 11 -50 l-6 -44 40 -1 c33 -2 39 1 34 14 -4 12 -2 15
8 12 8 -3 13 -11 12 -17 -2 -8 89 -11 331 -11 315 1 335 2 341 19 6 20 62 24
58 4 -3 -14 35 -22 102 -21 46 1 48 2 22 12 -16 6 -25 16 -23 23 3 7 1 15 -4
18 -16 10 -11 23 12 31 19 6 19 8 5 16 -12 6 -15 19 -13 41 2 18 -1 38 -7 45
-7 9 -4 21 12 43 12 16 19 34 16 39 -3 6 1 10 10 10 12 0 15 5 11 16 -3 9 -6
20 -6 25 0 6 -4 8 -9 4 -5 -3 -12 -1 -16 5 -3 5 1 10 9 10 17 0 18 4 20 90 1
30 5 65 9 76 6 17 3 23 -15 29 -18 5 -19 8 -7 12 12 3 16 17 16 58 0 30 -4 52
-8 49 -5 -3 -9 -3 -9 1 0 3 11 10 25 15 25 9 25 11 9 35 -11 18 -13 25 -4 25
10 0 9 4 -1 16 -20 25 -20 46 2 51 22 6 26 23 5 23 -17 0 -28 37 -14 46 6 4 5
10 -3 16 -10 7 -11 11 -2 14 18 8 4 34 -18 34 -16 0 -18 4 -11 18 5 9 7 23 5
30 -3 7 1 19 8 28 10 12 9 17 -5 27 -19 14 -12 47 10 47 12 0 12 4 2 20 -9 15
-10 25 -2 37 8 14 5 22 -15 39 l-26 23 24 -6 c20 -5 22 -3 16 16 -4 14 -2 21
7 21 10 0 10 2 -1 9 -8 5 -12 18 -9 29 4 13 0 23 -10 27 -21 8 -28 -3 -16 -23
8 -13 7 -23 -4 -40 -11 -18 -12 -28 -4 -47 8 -18 8 -25 -1 -28 -6 -2 -11 -16
-9 -32 1 -15 -2 -44 -8 -64 -7 -25 -6 -37 2 -42 9 -6 9 -14 0 -34 -7 -15 -10
-31 -7 -36 4 -5 2 -9 -3 -9 -6 0 -7 -10 -4 -22 5 -22 5 -22 -12 -5 -10 9 -22
15 -27 12 -5 -4 -9 -2 -9 4 0 5 6 12 13 14 9 4 8 8 -3 16 -13 10 -12 14 8 30
27 24 27 27 0 34 l-22 6 24 22 c15 13 18 20 8 16 -22 -8 -31 3 -16 20 8 11 7
12 -6 7 -9 -3 -16 -2 -16 4 0 5 -10 12 -22 16 -19 5 -21 8 -8 16 13 9 13 11 0
20 -13 9 -7 14 13 11 15 -2 6 19 -13 29 -15 8 -20 8 -21 -2 0 -7 -5 -2 -11 12
-6 14 -10 33 -9 43 1 9 -4 17 -12 17 -9 0 -14 -11 -15 -30 0 -22 4 -30 16 -30
14 0 15 -2 3 -9 -19 -12 -25 -46 -30 -183 0 -20 -7 -43 -13 -50 -7 -7 -20 -22
-28 -32 -14 -18 -13 -19 15 -13 17 3 25 4 19 1 -7 -3 -10 -19 -7 -40 6 -46 -4
-84 -22 -84 -7 0 -17 -5 -21 -11 -4 -7 0 -9 14 -5 21 7 21 4 8 -84 -3 -14 -5
-31 -5 -37 -1 -7 -9 -13 -18 -13 -9 0 -13 -3 -9 -7 3 -4 -4 -13 -16 -21 -13
-7 -15 -11 -5 -8 12 4 17 0 17 -14 0 -10 5 -22 10 -25 15 -10 12 -46 -7 -67
-11 -12 -12 -18 -4 -18 18 0 8 -23 -11 -26 -30 -4 -47 53 -39 126 4 36 6 73 3
82 -3 11 1 18 10 18 11 0 13 12 10 53 -6 89 -1 125 18 137 9 6 5 12 -15 23
l-29 14 25 8 c13 4 27 12 30 17 8 13 -1 58 -12 58 -11 0 1 32 15 43 7 5 6 10
-4 17 -13 8 -13 10 1 10 23 0 31 39 13 57 -11 12 -12 18 -3 29 9 11 9 14 0 14
-8 0 -10 8 -5 23 6 21 5 20 -23 -5 -16 -16 -34 -28 -41 -28 -7 0 -12 -6 -12
-13 0 -8 -11 -20 -25 -27 -14 -7 -23 -16 -20 -18 3 -3 -5 -12 -17 -20 -19 -14
-22 -13 -34 3 -16 22 -18 39 -4 30 6 -3 10 -1 10 4 0 6 -7 11 -15 11 -8 0 -15
5 -15 10 0 6 5 10 10 10 6 0 10 9 10 21 0 11 5 17 10 14 16 -10 12 12 -6 29
-8 9 -12 16 -7 16 5 0 14 -5 21 -12 8 -8 12 -8 12 -1 0 6 -10 18 -22 26 l-23
16 25 1 c25 1 24 1 -10 30 -21 18 -29 30 -20 30 8 0 21 -9 28 -20 7 -12 17
-18 23 -14 6 4 5 11 -3 22 -7 9 -8 13 -2 9 12 -7 11 33 -1 52 -11 19 -23 12
-18 -9 3 -12 0 -20 -6 -20 -7 0 -10 4 -6 9 3 5 2 12 -3 15 -7 4 -9 127 -2 134
8 7 4 152 -4 152 -6 0 -1 7 10 15 10 8 15 15 11 15 -4 0 -3 9 3 20 8 16 8 20
-4 20 -8 0 -20 -16 -26 -36z m148 -579 c0 -14 -6 -25 -13 -25 -7 0 -19 -8 -26
-17 -13 -15 -11 -16 10 -10 20 5 16 -1 -20 -34 -24 -21 -39 -39 -34 -39 6 0 6
-3 0 -8 -17 -12 -36 -52 -25 -52 5 0 10 -4 10 -10 0 -16 -47 -11 -54 6 -9 23
-7 46 3 40 5 -3 11 1 14 9 4 9 1 12 -9 8 -18 -7 -18 6 0 26 54 59 127 131 135
131 5 0 9 -11 9 -25z m219 -23 c-1 -17 -37 -27 -37 -10 0 5 27 26 37 28 1 0 1
-8 0 -18z m-427 -46 c0 -8 -5 -18 -12 -22 -7 -5 -9 -2 -5 9 3 9 1 18 -6 21 -7
2 -4 5 6 5 9 1 17 -5 17 -13z m160 -56 c0 -5 -5 -10 -11 -10 -5 0 -7 5 -4 10
3 6 8 10 11 10 2 0 4 -4 4 -10z m75 -10 c3 -5 1 -10 -4 -10 -6 0 -11 5 -11 10
0 6 2 10 4 10 3 0 8 -4 11 -10z m-158 -96 c-3 -3 -12 -4 -19 -1 -8 3 -5 6 6 6
11 1 17 -2 13 -5z m398 -34 c-3 -5 -10 -10 -16 -10 -5 0 -9 5 -9 10 0 6 7 10
16 10 8 0 12 -4 9 -10z m-515 -10 c12 -8 11 -10 -7 -10 -13 0 -23 5 -23 10 0
13 11 13 30 0z m0 -60 c0 -11 -7 -20 -15 -20 -13 0 -13 3 -3 20 7 11 14 20 15
20 2 0 3 -9 3 -20z m553 -15 c1 -5 -6 -11 -15 -13 -11 -2 -18 3 -18 13 0 17
30 18 33 0z m-26 -32 c3 -8 -5 -9 -23 -4 -15 4 -29 12 -31 18 -3 8 5 9 23 4
15 -4 29 -12 31 -18z m-545 -15 c-9 -9 -15 -9 -24 1 -11 11 -10 13 5 8 10 -4
17 -2 17 5 0 6 3 8 7 5 4 -4 1 -13 -5 -19z m-202 -78 c0 -5 -2 -10 -4 -10 -3
0 -8 5 -11 10 -3 6 -1 10 4 10 6 0 11 -4 11 -10z m695 0 c3 -5 1 -10 -4 -10
-6 0 -11 5 -11 10 0 6 2 10 4 10 3 0 8 -4 11 -10z m55 -10 c0 -5 -2 -10 -4
-10 -3 0 -8 5 -11 10 -3 6 -1 10 4 10 6 0 11 -4 11 -10z m-210 -20 c0 -5 -2
-10 -4 -10 -3 0 -8 5 -11 10 -3 6 -1 10 4 10 6 0 11 -4 11 -10z m-440 -21 c0
-14 -16 -11 -29 5 -10 12 -8 13 8 9 12 -3 21 -9 21 -14z m-10 -40 c0 -4 -16
-2 -36 4 -29 9 -32 12 -18 18 18 6 54 -9 54 -22z m-240 -54 c10 -12 9 -15 -8
-15 -11 0 -22 7 -26 15 -3 9 0 15 8 15 7 0 19 -7 26 -15z m56 -40 c-14 -15
-16 -15 -16 -1 0 9 -6 16 -12 17 -7 0 -4 4 7 9 28 11 41 -5 21 -25z m579 -5
c19 -36 19 -40 0 -40 -8 0 -15 6 -15 14 0 7 -7 19 -15 26 -19 16 -19 30 0 30
8 0 21 -13 30 -30z m-608 -32 c-3 -8 -6 -5 -6 6 -1 11 2 17 5 13 3 -3 4 -12 1
-19z m587 -26 c-9 -2 -12 -15 -9 -42 2 -22 -1 -42 -6 -45 -5 -4 -9 0 -10 7 0
7 -2 31 -4 53 -5 42 9 61 31 42 10 -10 9 -13 -2 -15z m-561 -22 c7 -26 -11
-36 -30 -17 -13 13 -13 17 -2 30 17 18 25 14 32 -13z m582 -20 c3 -5 1 -10 -4
-10 -6 0 -11 5 -11 10 0 6 2 10 4 10 3 0 8 -4 11 -10z m-45 -80 c0 -5 -2 -10
-4 -10 -3 0 -8 5 -11 10 -3 6 -1 10 4 10 6 0 11 -4 11 -10z m304 -4 c11 4 16
1 16 -11 0 -9 -6 -15 -12 -12 -7 2 -18 -2 -23 -10 -8 -11 -17 -11 -44 -2 -23
8 -29 14 -20 20 7 4 17 5 21 3 5 -3 11 2 14 11 5 11 10 13 19 5 7 -6 20 -8 29
-4z m-104 -6 c0 -5 -4 -10 -10 -10 -5 0 -10 5 -10 10 0 6 5 10 10 10 6 0 10
-4 10 -10z m-205 -18 c16 -11 18 -45 3 -40 -7 3 -13 9 -13 14 0 5 -4 15 -8 22
-9 13 2 16 18 4z m-15 -50 c0 -7 -4 -10 -10 -7 -5 3 -10 16 -10 28 0 18 2 19
10 7 5 -8 10 -21 10 -28z m335 28 c3 -5 -1 -10 -9 -10 -9 0 -16 5 -16 10 0 6
4 10 9 10 6 0 13 -4 16 -10z m-24 -39 c-8 -5 -11 -16 -8 -25 7 -17 -17 -23
-28 -6 -3 5 -12 7 -20 3 -8 -3 -15 0 -15 6 0 10 14 15 33 12 4 0 7 4 7 9 0 6
10 10 23 10 16 0 19 -3 8 -9z m-302 -25 c8 -9 8 -16 2 -20 -5 -4 -12 -2 -16 4
-15 24 -24 7 -11 -19 15 -27 14 -29 -4 -24 -17 5 -19 13 -11 66 2 12 28 8 40
-7z m-534 -66 c3 -5 1 -10 -4 -10 -6 0 -11 5 -11 10 0 6 2 10 4 10 3 0 8 -4
11 -10z m85 -10 c0 -5 -5 -10 -11 -10 -5 0 -7 5 -4 10 3 6 8 10 11 10 2 0 4
-4 4 -10z m417 -17 c-3 -3 -11 -2 -17 2 -9 6 -9 10 1 16 14 8 27 -7 16 -18z"/>
<path d="M3640 1664 c0 -8 5 -12 10 -9 6 3 10 10 10 16 0 5 -4 9 -10 9 -5 0
-10 -7 -10 -16z"/>
<path d="M1870 1604 c0 -8 5 -12 10 -9 6 4 8 11 5 16 -9 14 -15 11 -15 -7z"/>
<path d="M3844 1581 c9 -16 12 -31 9 -35 -13 -12 -11 -33 3 -33 7 0 11 4 8 9
-3 4 -1 8 4 8 13 0 -10 69 -26 75 -9 3 -8 -3 2 -24z"/>
<path d="M3625 1580 c27 -12 43 -12 25 0 -8 5 -22 9 -30 9 -10 0 -8 -3 5 -9z"/>
<path d="M3610 1556 c0 -2 7 -6 15 -10 8 -3 15 -1 15 4 0 6 -7 10 -15 10 -8 0
-15 -2 -15 -4z"/>
<path d="M4300 1534 c0 -8 5 -12 10 -9 6 3 10 10 10 16 0 5 -4 9 -10 9 -5 0
-10 -7 -10 -16z"/>
<path d="M2120 1506 c0 -2 7 -7 16 -10 8 -3 12 -2 9 4 -6 10 -25 14 -25 6z"/>
<path d="M3826 1490 c3 -14 10 -29 15 -34 14 -16 10 6 -7 34 l-15 25 7 -25z"/>
<path d="M4270 1491 c0 -5 -3 -17 -6 -25 -5 -12 -2 -15 10 -10 17 7 22 44 6
44 -5 0 -10 -4 -10 -9z"/>
<path d="M3614 1464 c-18 -14 -18 -15 4 -4 12 6 22 13 22 15 0 8 -5 6 -26 -11z"/>
<path d="M2145 1440 c3 -5 8 -10 11 -10 2 0 4 5 4 10 0 6 -5 10 -11 10 -5 0
-7 -4 -4 -10z"/>
<path d="M3612 1420 c0 -14 2 -19 5 -12 2 6 2 18 0 25 -3 6 -5 1 -5 -13z"/>
<path d="M3825 1410 c-3 -5 -1 -10 4 -10 6 0 11 5 11 10 0 6 -2 10 -4 10 -3 0
-8 -4 -11 -10z"/>
<path d="M364 1398 c-5 -7 -3 -8 6 -3 10 6 11 2 6 -18 -4 -16 -1 -35 6 -47 10
-16 10 -24 1 -40 -11 -17 -10 -18 5 -13 9 3 14 3 10 -2 -4 -4 0 -21 8 -37 9
-17 14 -38 12 -47 -2 -9 4 -24 14 -34 19 -18 19 -16 12 45 -4 35 -10 65 -14
68 -6 5 -20 66 -22 100 -1 14 -21 40 -32 40 -3 0 -8 -5 -12 -12z"/>
<path d="M4031 1384 c0 -11 3 -14 6 -6 3 7 2 16 -1 19 -3 4 -6 -2 -5 -13z"/>
<path d="M4107 1370 c-16 -16 -34 -30 -40 -30 -7 0 -6 -4 3 -10 15 -9 50 18
50 40 0 6 5 8 10 5 6 -3 10 1 10 9 0 21 -1 21 -33 -14z"/>
<path d="M3627 1379 c7 -7 15 -10 18 -7 3 3 -2 9 -12 12 -14 6 -15 5 -6 -5z"/>
<path d="M151 1366 c-10 -12 -8 -13 8 -9 12 3 18 9 15 14 -7 12 -10 11 -23 -5z"/>
<path d="M3626 1291 c-4 -6 -1 -11 6 -11 9 0 9 -3 -2 -10 -13 -8 -12 -10 3
-10 19 0 21 8 8 29 -6 9 -11 10 -15 2z"/>
<path d="M4050 1290 c0 -5 6 -10 14 -10 8 0 17 -8 19 -17 3 -11 5 -7 6 10 1
21 -4 27 -19 27 -11 0 -20 -4 -20 -10z"/>
<path d="M3670 1250 c0 -5 5 -10 11 -10 5 0 7 5 4 10 -3 6 -8 10 -11 10 -2 0
-4 -4 -4 -10z"/>
<path d="M1983 1216 c-20 -9 -23 -18 -22 -61 1 -43 2 -46 9 -22 5 16 14 35 21
43 8 10 9 14 0 14 -8 0 -8 4 1 14 7 8 17 11 22 8 5 -3 6 0 2 6 -4 7 -8 11 -9
11 -1 -1 -12 -6 -24 -13z"/>
<path d="M3630 1219 c0 -5 5 -7 10 -4 6 3 10 8 10 11 0 2 -4 4 -10 4 -5 0 -10
-5 -10 -11z"/>
<path d="M2040 1210 c-13 -9 -13 -11 0 -20 10 -6 16 -6 18 0 7 20 -3 30 -18
20z"/>
<path d="M3665 1200 c-3 -5 -13 -6 -22 -3 -10 4 -14 2 -9 -5 9 -15 46 -11 46
5 0 15 -6 17 -15 3z"/>
<path d="M3644 1155 c11 -8 22 -12 25 -9 6 6 -19 24 -34 24 -5 -1 -1 -7 9 -15z"/>
<path d="M2010 1145 c-16 -20 -6 -44 19 -42 23 1 36 38 18 49 -17 11 -23 10
-37 -7z"/>
<path d="M2091 1132 c-2 -42 -19 -62 -56 -62 -18 0 -37 5 -40 10 -4 6 -11 8
-16 4 -6 -3 6 -14 25 -25 29 -15 40 -17 61 -7 25 11 43 62 32 90 -3 7 -6 3 -6
-10z"/>
<path d="M2371 1124 c0 -11 3 -14 6 -6 3 7 2 16 -1 19 -3 4 -6 -2 -5 -13z"/>
<path d="M3645 1123 c4 -10 8 -25 9 -32 2 -8 9 -17 16 -19 9 -3 11 1 7 12 -4
10 -7 24 -7 31 0 7 -7 16 -16 19 -12 5 -15 2 -9 -11z"/>
<path d="M1760 1109 c0 -5 5 -7 10 -4 6 3 10 8 10 11 0 2 -4 4 -10 4 -5 0 -10
-5 -10 -11z"/>
<path d="M67 1086 c-4 -10 -1 -13 8 -9 8 3 12 9 9 14 -7 12 -11 11 -17 -5z"/>
<path d="M3614 1066 c3 -18 16 -36 27 -36 6 0 8 4 5 9 -4 5 -2 11 4 13 5 1 -1
8 -14 14 -17 8 -23 8 -22 0z"/>
<path d="M2225 1030 c-3 -5 1 -10 10 -10 9 0 13 5 10 10 -3 6 -8 10 -10 10 -2
0 -7 -4 -10 -10z"/>
<path d="M3602 1008 c3 -7 11 -13 19 -13 8 0 25 -6 39 -13 21 -12 21 -10 -5
12 -32 27 -59 34 -53 14z"/>
<path d="M370 1000 c0 -5 4 -10 9 -10 6 0 13 5 16 10 3 6 -1 10 -9 10 -9 0
-16 -4 -16 -10z"/>
<path d="M3029 988 c0 -13 -3 -17 -6 -9 -4 11 -7 11 -14 0 -4 -7 -3 -21 2 -31
7 -12 6 -31 -1 -56 -12 -46 -13 -62 -1 -62 5 0 12 19 16 41 10 58 25 31 25
-45 0 -63 8 -70 16 -14 2 18 7 49 11 68 l6 35 13 -50 14 -50 -4 58 c-1 32 1
60 6 63 4 3 8 15 8 27 0 17 -2 19 -9 8 -7 -11 -10 -9 -13 10 -3 23 -4 23 -18
-8 -19 -43 -30 -42 -30 2 0 38 -19 50 -21 13z"/>
<path d="M417 983 c5 -12 2 -15 -9 -10 -23 8 -18 -52 6 -77 20 -20 20 -20 -8
-27 -15 -4 -35 -5 -44 -2 -15 4 -15 3 -2 -6 8 -6 27 -11 42 -11 15 0 30 -5 34
-12 5 -8 2 -9 -9 -5 -10 3 -17 2 -17 -3 0 -6 7 -10 15 -10 22 0 18 -17 -5 -23
-24 -6 -27 -27 -4 -27 8 0 12 5 9 10 -3 6 -1 10 4 10 14 0 14 -13 -1 -28 -8
-8 -8 -12 -1 -12 6 0 14 -7 17 -16 3 -8 2 -13 -2 -11 -4 3 -12 -1 -19 -8 -10
-10 -9 -15 4 -19 16 -6 10 -21 -8 -21 -5 0 -8 -4 -6 -10 1 -5 8 -10 15 -10 7
0 17 -6 21 -14 10 -16 13 186 5 261 -4 35 -9 45 -20 41 -19 -7 -18 22 2 41 14
15 14 16 -5 16 -15 0 -19 -4 -14 -17z"/>
<path d="M2980 981 c-6 -12 -15 -19 -19 -17 -10 6 -31 -61 -31 -99 0 -37 40
-115 59 -115 8 0 25 -10 38 -22 23 -21 23 -21 59 -2 21 10 49 30 63 44 22 22
25 33 26 95 0 60 -4 75 -24 100 l-24 30 7 -35 c21 -102 15 -151 -22 -185 -54
-50 -122 -18 -144 68 -10 38 -10 52 0 67 7 11 12 28 12 38 0 10 5 23 12 30 6
6 9 14 6 18 -4 3 -11 -4 -18 -15z"/>
<path d="M4280 970 c0 -5 5 -10 11 -10 5 0 7 5 4 10 -3 6 -8 10 -11 10 -2 0
-4 -4 -4 -10z"/>
<path d="M1877 923 c-4 -3 -7 -11 -7 -17 0 -6 5 -5 12 2 6 6 9 14 7 17 -3 3
-9 2 -12 -2z"/>
<path d="M1694 901 c4 -6 2 -18 -4 -26 -10 -12 -9 -15 4 -15 18 0 22 35 4 46
-7 4 -8 3 -4 -5z"/>
<path d="M1900 900 c0 -5 -7 -10 -15 -10 -11 0 -15 -10 -14 -37 l1 -38 9 33
c5 17 13 32 18 32 5 0 11 7 15 15 3 8 1 15 -4 15 -6 0 -10 -4 -10 -10z"/>
<path d="M2244 885 c3 -8 1 -15 -4 -15 -6 0 -10 -5 -10 -11 0 -8 5 -8 15 1 8
7 13 16 10 20 -3 5 3 11 12 13 13 3 12 5 -6 6 -17 1 -22 -3 -17 -14z"/>
<path d="M80 882 c0 -5 7 -9 15 -9 8 0 12 4 9 9 -3 4 -9 8 -15 8 -5 0 -9 -4
-9 -8z"/>
<path d="M2078 863 c6 -2 18 -2 25 0 6 3 1 5 -13 5 -14 0 -19 -2 -12 -5z"/>
<path d="M3463 863 c-16 -6 -17 -49 -1 -59 8 -5 6 -11 -6 -20 -10 -7 -15 -17
-11 -23 3 -6 -2 -11 -12 -11 -16 -1 -15 -3 6 -20 13 -11 29 -20 37 -20 8 0 14
-4 14 -10 0 -5 7 -7 15 -3 9 3 15 2 14 -3 -3 -18 1 -34 10 -34 12 0 0 52 -15
67 -7 7 -18 13 -24 13 -6 0 -8 5 -5 11 4 6 14 8 22 5 8 -3 11 -1 8 4 -3 6 -18
10 -33 10 -23 1 -25 2 -11 13 17 13 14 41 -4 30 -7 -4 -8 0 -4 11 4 10 7 22 7
28 0 6 9 8 20 5 11 -3 18 -1 14 4 -6 10 -21 11 -41 2z"/>
<path d="M87 827 c-11 -29 -9 -43 4 -30 6 6 9 19 7 29 -3 18 -4 18 -11 1z"/>
<path d="M2235 830 c3 -5 8 -10 11 -10 2 0 4 5 4 10 0 6 -5 10 -11 10 -5 0 -7
-4 -4 -10z"/>
<path d="M2285 830 c3 -5 1 -10 -6 -10 -7 0 -10 -2 -7 -5 7 -8 38 5 38 16 0 5
-7 9 -16 9 -8 0 -12 -4 -9 -10z"/>
<path d="M108 783 c7 -3 16 -2 19 1 4 3 -2 6 -13 5 -11 0 -14 -3 -6 -6z"/>
<path d="M3410 776 c0 -9 5 -16 10 -16 6 0 10 4 10 9 0 6 -4 13 -10 16 -5 3
-10 -1 -10 -9z"/>
<path d="M130 751 c-7 -15 -7 -21 0 -21 12 0 25 28 17 36 -3 3 -10 -4 -17 -15z"/>
<path d="M2310 761 c0 -6 4 -13 10 -16 6 -3 7 1 4 9 -7 18 -14 21 -14 7z"/>
<path d="M2230 756 c0 -2 7 -6 15 -10 8 -3 15 -1 15 4 0 6 -7 10 -15 10 -8 0
-15 -2 -15 -4z"/>
<path d="M1675 729 c-4 -6 -5 -12 -2 -15 2 -3 7 2 10 11 7 17 1 20 -8 4z"/>
<path d="M2356 726 c21 -15 30 -14 19 3 -3 6 -14 11 -23 11 -13 0 -13 -2 4
-14z"/>
<path d="M99 718 c-1 -7 -2 -21 -2 -30 0 -10 -4 -18 -10 -18 -5 0 -4 -7 3 -15
7 -8 10 -20 7 -27 -3 -8 4 -14 17 -14 15 -1 22 4 22 17 0 14 -3 16 -14 6 -12
-9 -13 -8 -10 8 2 11 10 19 17 17 7 -1 10 2 6 8 -3 6 -11 7 -17 4 -7 -5 -9 2
-6 20 3 14 1 29 -3 32 -5 3 -10 -1 -10 -8z"/>
<path d="M2258 723 c6 -2 18 -2 25 0 6 3 1 5 -13 5 -14 0 -19 -2 -12 -5z"/>
<path d="M1636 702 c-4 -7 -4 -21 -1 -32 4 -14 2 -20 -7 -18 -8 2 -14 -8 -16
-25 -2 -15 -7 -25 -11 -22 -5 2 -6 -7 -3 -20 4 -25 32 -36 32 -12 0 8 4 7 10
-3 7 -10 10 -11 10 -2 0 7 -7 15 -15 18 -22 9 -19 45 4 51 13 3 18 10 13 21
-5 15 -3 15 10 4 20 -16 31 -2 12 16 -8 7 -14 9 -15 5 0 -4 -4 1 -8 11 -5 14
-10 16 -15 8z"/>
<path d="M2290 706 c0 -2 7 -6 15 -10 8 -3 15 -1 15 4 0 6 -7 10 -15 10 -8 0
-15 -2 -15 -4z"/>
<path d="M2260 690 c-13 -8 -12 -10 3 -10 9 0 17 5 17 10 0 12 -1 12 -20 0z"/>
<path d="M2858 688 c5 -5 16 -8 23 -6 8 3 3 7 -10 11 -17 4 -21 3 -13 -5z"/>
<path d="M2680 670 c0 -5 4 -10 9 -10 6 0 13 5 16 10 3 6 -1 10 -9 10 -9 0
-16 -4 -16 -10z"/>
<path d="M426 633 c-6 -14 -5 -15 5 -6 7 7 10 15 7 18 -3 3 -9 -2 -12 -12z"/>
<path d="M2535 640 c-3 -5 -1 -10 4 -10 6 0 11 5 11 10 0 6 -2 10 -4 10 -3 0
-8 -4 -11 -10z"/>
<path d="M222 620 c-8 -13 -8 -20 -2 -20 6 0 13 7 17 15 9 24 -1 27 -15 5z"/>
<path d="M315 620 c3 -5 8 -10 11 -10 2 0 4 5 4 10 0 6 -5 10 -11 10 -5 0 -7
-4 -4 -10z"/>
<path d="M2890 620 c0 -5 7 -7 15 -4 8 4 15 8 15 10 0 2 -7 4 -15 4 -8 0 -15
-4 -15 -10z"/>
<path d="M2940 620 c19 -13 30 -13 30 0 0 6 -10 10 -22 10 -19 0 -20 -2 -8
-10z"/>
<path d="M2526 611 c-6 -8 -1 -20 15 -35 12 -11 18 -14 12 -6 -6 8 -13 24 -15
35 -3 15 -5 17 -12 6z"/>
<path d="M3198 613 c6 -2 18 -2 25 0 6 3 1 5 -13 5 -14 0 -19 -2 -12 -5z"/>
<path d="M416 594 c-8 -21 -8 -34 2 -34 4 0 9 11 10 25 2 28 -3 32 -12 9z"/>
<path d="M445 600 c-3 -5 -1 -10 4 -10 6 0 11 5 11 10 0 6 -2 10 -4 10 -3 0
-8 -4 -11 -10z"/>
<path d="M2766 596 c3 -9 13 -16 22 -16 8 0 13 1 11 3 -2 1 -12 9 -22 16 -15
12 -17 12 -11 -3z"/>
<path d="M93 579 c-1 -10 3 -19 9 -19 6 0 8 -3 5 -7 -4 -3 -2 -12 4 -20 9 -10
7 -13 -7 -13 -14 0 -16 -2 -6 -9 9 -5 12 -20 9 -40 -3 -17 -2 -31 3 -31 15 0
20 -32 8 -47 -7 -9 -8 -17 -2 -21 5 -4 9 -29 8 -57 0 -27 3 -55 8 -62 5 -6 11
-35 14 -65 3 -29 9 -80 14 -113 6 -33 10 -63 10 -67 0 -5 70 -8 155 -8 l156 0
-2 93 c-1 50 -5 100 -10 110 -6 9 -6 17 -1 17 9 0 4 90 -4 99 -3 3 -10 6 -17
7 -87 14 -105 15 -111 6 -3 -5 5 -7 19 -4 15 2 25 0 25 -7 0 -6 -4 -11 -10
-11 -5 0 -10 -9 -10 -19 0 -11 -5 -23 -12 -27 -7 -4 -8 -3 -4 4 4 7 2 12 -4
12 -15 0 -8 -42 8 -48 6 -2 12 3 12 11 0 21 52 29 66 9 6 -8 15 -12 21 -9 5 3
10 0 10 -8 0 -8 -6 -15 -14 -15 -7 0 -13 -8 -14 -17 0 -15 -2 -15 -9 2 -8 19
-9 19 -9 -2 -1 -17 -7 -23 -23 -23 -20 0 -20 -1 -5 -18 10 -10 17 -25 17 -32
0 -9 -5 -7 -16 6 -16 20 -17 21 2 -34 3 -10 2 -13 -3 -7 -4 6 -20 16 -35 22
-21 9 -28 9 -32 0 -3 -9 -5 -9 -5 1 -1 6 -9 12 -18 12 -14 0 -15 -2 -5 -9 10
-6 10 -10 -2 -21 -13 -10 -17 -9 -22 5 -11 28 17 46 54 36 20 -6 32 -6 32 0 0
5 -4 9 -10 9 -16 0 -23 2 -47 11 -15 6 -22 5 -20 -2 1 -6 -6 -13 -15 -14 -10
-2 -16 2 -15 8 1 7 -3 11 -9 10 -9 -2 -9 4 -1 22 7 13 16 21 20 18 5 -3 13 0
17 8 11 17 -12 50 -47 65 -18 8 -22 13 -11 13 22 1 32 17 17 27 -8 5 -10 2 -5
-7 4 -8 1 -6 -8 5 -8 10 -20 15 -26 11 -9 -6 -9 -9 0 -15 8 -5 5 -9 -9 -13
-18 -4 -19 -2 -10 15 6 10 17 22 25 25 22 8 17 22 -11 29 -27 7 -32 18 -13 30
7 4 8 3 4 -4 -5 -8 -2 -10 9 -6 14 6 14 8 -2 20 -10 8 -13 13 -6 14 7 0 10 6
7 14 -3 8 -1 23 5 34 8 15 7 21 -4 25 -9 4 -12 1 -9 -7 3 -7 -2 -13 -10 -13
-11 0 -13 5 -5 19 5 10 17 18 26 18 13 0 14 3 5 12 -8 8 -15 8 -24 0 -8 -6
-19 -8 -26 -3 -8 5 -6 11 8 21 28 20 25 33 -7 25 -22 -5 -25 -4 -15 8 12 14 7
27 -10 27 -5 0 -6 -6 -2 -12 6 -10 5 -10 -7 -1 -12 10 -15 8 -16 -8z m77 -129
c0 -5 -5 -10 -11 -10 -5 0 -7 5 -4 10 3 6 8 10 11 10 2 0 4 -4 4 -10z m76
-210 c0 -11 -1 -20 -1 -20 0 0 -8 9 -18 20 -16 19 -16 20 1 20 11 0 18 -8 18
-20z m209 -40 c3 -5 1 -10 -4 -10 -6 0 -11 5 -11 10 0 6 2 10 4 10 3 0 8 -4
11 -10z m-140 -128 c-8 -8 -25 10 -19 20 4 6 9 5 15 -3 4 -7 6 -15 4 -17z"/>
<path d="M2879 589 c-10 -6 -7 -9 14 -9 29 0 35 5 14 13 -8 3 -20 1 -28 -4z"/>
<path d="M3370 595 c0 -2 9 -9 20 -15 16 -9 20 -8 20 5 0 8 -9 15 -20 15 -11
0 -20 -2 -20 -5z"/>
<path d="M301 578 c-1 -9 4 -20 9 -23 13 -8 13 -62 -1 -70 -11 -7 22 -37 38
-34 4 1 10 0 13 -1 19 -7 39 -7 34 1 -3 5 -11 7 -17 3 -7 -3 -4 1 6 9 21 17
22 34 2 34 -8 0 -12 -4 -9 -9 13 -21 -16 -5 -30 17 -21 32 -22 52 -1 35 9 -7
19 -9 23 -5 4 4 1 10 -5 12 -7 3 -13 13 -13 24 0 11 -7 19 -16 19 -8 0 -12 -4
-9 -10 3 -5 2 -10 -4 -10 -5 0 -12 6 -14 13 -3 7 -6 6 -6 -5z"/>
<path d="M241 558 c-2 -28 10 -48 29 -48 21 0 21 24 0 43 -12 10 -12 9 -2 -5
9 -11 10 -18 2 -23 -5 -3 -12 0 -14 7 -13 42 -14 43 -15 26z"/>
<path d="M1610 541 c0 -5 9 -7 20 -4 11 3 20 7 20 9 0 2 -9 4 -20 4 -11 0 -20
-4 -20 -9z"/>
<path d="M2460 540 c0 -5 5 -10 11 -10 5 0 7 5 4 10 -3 6 -8 10 -11 10 -2 0
-4 -4 -4 -10z"/>
<path d="M449 519 c0 -22 -1 -23 -9 -4 -7 14 -8 10 -4 -16 5 -29 2 -40 -13
-49 -16 -10 -16 -11 0 -6 13 4 20 -2 28 -21 5 -15 8 -32 5 -40 -3 -7 -1 -13 4
-13 11 0 7 156 -4 167 -3 4 -6 -5 -7 -18z"/>
<path d="M2814 532 c3 -5 0 -13 -6 -15 -9 -4 -10 -6 -1 -6 17 -1 25 16 12 25
-7 4 -9 3 -5 -4z"/>
<path d="M400 520 c0 -8 5 -22 10 -30 9 -13 10 -13 10 0 0 8 -5 22 -10 30 -9
13 -10 13 -10 0z"/>
<path d="M2455 510 c3 -5 11 -10 16 -10 6 0 7 5 4 10 -3 6 -11 10 -16 10 -6 0
-7 -4 -4 -10z"/>
<path d="M3017 509 c7 -7 15 -10 18 -7 3 3 -2 9 -12 12 -14 6 -15 5 -6 -5z"/>
<path d="M1350 479 c-7 -11 -10 -23 -7 -25 2 -2 9 7 15 21 14 30 7 33 -8 4z"/>
<path d="M2845 490 c3 -5 8 -10 11 -10 2 0 4 5 4 10 0 6 -5 10 -11 10 -5 0 -7
-4 -4 -10z"/>
<path d="M2915 490 c4 -6 11 -8 16 -5 14 9 11 15 -7 15 -8 0 -12 -5 -9 -10z"/>
<path d="M1585 481 c-3 -5 -2 -12 3 -15 5 -3 9 1 9 9 0 17 -3 19 -12 6z"/>
<path d="M1378 473 c7 -3 16 -2 19 1 4 3 -2 6 -13 5 -11 0 -14 -3 -6 -6z"/>
<path d="M2570 470 c0 -6 7 -10 15 -10 8 0 15 2 15 4 0 2 -7 6 -15 10 -8 3
-15 1 -15 -4z"/>
<path d="M1602 455 c-7 -8 -22 -15 -32 -15 -11 0 -20 -5 -20 -11 0 -6 9 -8 20
-4 16 5 19 3 13 -11 -4 -12 -2 -15 8 -12 8 3 13 11 12 17 -2 6 1 11 5 11 4 0
8 9 9 20 2 24 2 24 -15 5z"/>
<path d="M1310 450 c-13 -8 -12 -10 3 -10 9 0 17 5 17 10 0 12 -1 12 -20 0z"/>
<path d="M2615 450 c-3 -5 -1 -10 4 -10 6 0 11 5 11 10 0 6 -2 10 -4 10 -3 0
-8 -4 -11 -10z"/>
<path d="M3075 450 c3 -5 14 -10 23 -10 15 0 15 2 2 10 -20 13 -33 13 -25 0z"/>
<path d="M2980 429 c0 -5 5 -7 10 -4 6 3 10 8 10 11 0 2 -4 4 -10 4 -5 0 -10
-5 -10 -11z"/>
<path d="M388 422 c-10 -2 -18 -8 -18 -12 0 -6 -11 -6 -25 0 -14 5 -25 6 -25
1 0 -5 12 -12 27 -16 15 -3 33 -15 41 -26 7 -10 17 -19 21 -19 16 0 21 32 9
48 -7 8 -11 17 -10 19 6 8 -2 10 -20 5z m22 -48 c0 -8 -4 -12 -10 -9 -5 3 -10
10 -10 16 0 5 5 9 10 9 6 0 10 -7 10 -16z"/>
<path d="M1856 415 c4 -8 8 -15 10 -15 2 0 4 7 4 15 0 8 -4 15 -10 15 -5 0 -7
-7 -4 -15z"/>
<path d="M1299 403 c-13 -16 -12 -17 4 -4 16 13 21 21 13 21 -2 0 -10 -8 -17
-17z"/>
<path d="M2565 410 c-4 -6 -14 -9 -22 -5 -13 4 -14 3 -3 -10 8 -10 9 -15 1
-15 -6 0 -11 -6 -11 -14 0 -8 -6 -17 -12 -19 -7 -3 -2 -6 11 -6 23 -1 21 -16
-1 -16 -6 0 -13 -6 -16 -14 -3 -10 0 -12 12 -8 9 4 16 2 16 -3 0 -6 8 -10 18
-9 10 0 12 3 5 6 -7 2 -13 9 -13 14 0 14 34 11 56 -6 37 -28 35 -15 -3 20 -21
19 -34 35 -30 35 4 0 3 9 -3 19 -7 14 -6 21 3 24 6 2 9 7 6 11 -4 4 -10 2 -14
-4z"/>
<path d="M2895 400 c3 -5 10 -10 16 -10 5 0 9 5 9 10 0 6 -7 10 -16 10 -8 0
-12 -4 -9 -10z"/>
<path d="M1544 384 c9 -8 16 -20 16 -25 0 -5 7 -9 16 -9 13 0 14 3 5 14 -10
12 -8 15 11 19 16 3 15 4 -5 2 -15 -1 -30 2 -33 7 -3 4 -10 8 -15 8 -6 0 -3
-7 5 -16z"/>
<path d="M2953 371 c9 -24 13 -27 24 -16 15 15 18 29 4 21 -5 -3 -11 1 -15 9
-3 8 -10 15 -15 15 -5 0 -5 -12 2 -29z"/>
<path d="M275 380 c4 -6 11 -8 16 -5 14 9 11 15 -7 15 -8 0 -12 -5 -9 -10z"/>
<path d="M321 374 c0 -11 3 -14 6 -6 3 7 2 16 -1 19 -3 4 -6 -2 -5 -13z"/>
<path d="M2855 368 c34 -20 47 -36 32 -42 -9 -4 18 -2 43 4 3 0 -3 5 -12 11
-10 5 -18 15 -18 22 0 7 -15 13 -33 14 -28 2 -30 1 -12 -9z"/>
<path d="M2461 337 c2 -1 13 -9 24 -17 19 -14 19 -14 6 3 -7 9 -18 17 -24 17
-6 0 -8 -1 -6 -3z"/>
<path d="M4290 319 c0 -5 5 -7 10 -4 6 3 10 8 10 11 0 2 -4 4 -10 4 -5 0 -10
-5 -10 -11z"/>
<path d="M1138 293 c7 -3 16 -2 19 1 4 3 -2 6 -13 5 -11 0 -14 -3 -6 -6z"/>
<path d="M2945 290 c3 -5 8 -10 11 -10 2 0 4 5 4 10 0 6 -5 10 -11 10 -5 0 -7
-4 -4 -10z"/>
<path d="M2916 275 c4 -8 9 -15 13 -16 3 0 13 -2 22 -4 9 -1 23 1 30 6 10 6 8
9 -9 9 -13 0 -32 5 -42 10 -16 8 -18 8 -14 -5z"/>
<path d="M1537 253 c-10 -9 -9 -53 1 -53 5 0 9 14 9 30 0 33 -1 33 -10 23z"/>
<path d="M295 240 c-9 -15 -1 -23 21 -18 15 3 16 4 1 16 -11 9 -17 10 -22 2z"/>
<path d="M2617 234 c3 -9 9 -11 12 -6 3 5 13 12 21 15 9 3 4 6 -12 6 -21 1
-26 -3 -21 -15z"/>
<path d="M2876 234 c-5 -12 -2 -15 10 -10 8 3 18 6 20 6 3 0 2 5 -1 10 -9 15
-22 12 -29 -6z"/>
<path d="M3075 240 c-3 -5 3 -10 14 -10 12 0 21 5 21 10 0 6 -6 10 -14 10 -8
0 -18 -4 -21 -10z"/>
<path d="M3260 230 c0 -5 5 -10 10 -10 6 0 10 5 10 10 0 6 -4 10 -10 10 -5 0
-10 -4 -10 -10z"/>
<path d="M3140 205 c14 -17 70 -20 70 -4 0 6 -6 9 -14 6 -7 -3 -19 0 -26 6
-10 9 -11 9 -6 0 4 -7 2 -13 -3 -13 -6 0 -11 5 -11 10 0 6 -5 10 -11 10 -8 0
-8 -5 1 -15z"/>
<path d="M1130 194 c6 -6 7 -14 3 -17 -3 -4 -3 -7 0 -7 3 0 11 9 17 19 8 17 7
20 -9 18 -14 -1 -17 -5 -11 -13z"/>
<path d="M1170 206 c0 -2 7 -6 15 -10 8 -3 15 -1 15 4 0 6 -7 10 -15 10 -8 0
-15 -2 -15 -4z"/>
<path d="M2652 201 c-11 -6 -10 -10 4 -15 20 -8 32 0 18 14 -5 5 -15 5 -22 1z"/>
<path d="M1545 180 c-3 -6 1 -7 9 -4 18 7 21 14 7 14 -6 0 -13 -4 -16 -10z"/>
<path d="M3085 180 c-3 -5 -1 -10 4 -10 6 0 11 5 11 10 0 6 -2 10 -4 10 -3 0
-8 -4 -11 -10z"/>
<path d="M1190 162 c0 -7 -4 -10 -10 -7 -5 3 -10 0 -10 -7 0 -8 14 -14 35 -15
37 -2 41 3 25 27 -8 13 -10 12 -10 -4 0 -20 0 -20 -15 0 -9 12 -14 14 -15 6z"/>
<path d="M2680 140 c0 -5 5 -10 11 -10 5 0 7 5 4 10 -3 6 -8 10 -11 10 -2 0
-4 -4 -4 -10z"/>
<path d="M3103 129 c15 -9 16 -13 5 -27 -9 -11 -9 -14 -1 -9 7 5 25 0 40 -10
l28 -18 -30 37 c-16 20 -37 37 -45 37 -11 0 -10 -2 3 -10z"/>
<path d="M3150 120 c0 -6 7 -10 15 -10 8 0 15 2 15 4 0 2 -7 6 -15 10 -8 3
-15 1 -15 -4z"/>
<path d="M4265 120 c-3 -5 -2 -10 4 -10 5 0 13 5 16 10 3 6 2 10 -4 10 -5 0
-13 -4 -16 -10z"/>
<path d="M1135 110 c-3 -5 -1 -10 4 -10 6 0 11 5 11 10 0 6 -2 10 -4 10 -3 0
-8 -4 -11 -10z"/>
<path d="M2950 110 c0 -5 5 -10 11 -10 5 0 7 5 4 10 -3 6 -8 10 -11 10 -2 0
-4 -4 -4 -10z"/>
<path d="M2683 93 c-21 -8 -15 -18 12 -19 21 -2 24 1 14 12 -6 8 -12 14 -13
13 0 0 -7 -3 -13 -6z"/>
<path d="M3077 79 c7 -7 15 -10 18 -7 3 3 -2 9 -12 12 -14 6 -15 5 -6 -5z"/>
<path d="M1500 70 c0 -6 7 -10 15 -10 8 0 15 2 15 4 0 2 -7 6 -15 10 -8 3 -15
1 -15 -4z"/>
<path d="M3124 66 c11 -9 24 -16 30 -16 12 0 7 5 -24 19 -24 11 -24 11 -6 -3z"/>
<path d="M625 50 c3 -5 8 -10 11 -10 2 0 4 5 4 10 0 6 -5 10 -11 10 -5 0 -7
-4 -4 -10z"/>
<path d="M3110 35 c0 -9 4 -14 9 -10 5 3 12 -3 15 -12 3 -11 4 -9 3 6 -2 27
-27 42 -27 16z"/>
<path d="M3220 24 c0 -8 5 -12 10 -9 6 4 8 11 5 16 -9 14 -15 11 -15 -7z"/>
<path d="M3001 14 c0 -11 3 -14 6 -6 3 7 2 16 -1 19 -3 4 -6 -2 -5 -13z"/>
<path d="M3155 20 c-3 -5 -1 -10 4 -10 6 0 11 5 11 10 0 6 -2 10 -4 10 -3 0
-8 -4 -11 -10z"/>
<path d="M2690 10 c0 -5 5 -10 11 -10 5 0 7 5 4 10 -3 6 -8 10 -11 10 -2 0 -4
-4 -4 -10z"/>
<path d="M4090 10 c0 -5 5 -10 11 -10 5 0 7 5 4 10 -3 6 -8 10 -11 10 -2 0 -4
-4 -4 -10z"/>
</g>
</svg>
